<svg width="32" height="32" viewBox="0 0 32 32" fill="none" xmlns="http://www.w3.org/2000/svg">
<path d="M16.0003 2.66797C8.64033 2.66797 2.66699 8.6413 2.66699 16.0013C2.66699 23.3613 8.64033 29.3346 16.0003 29.3346C23.3603 29.3346 29.3337 23.3613 29.3337 16.0013C29.3337 8.6413 23.3603 2.66797 16.0003 2.66797ZM16.0003 26.668C10.1203 26.668 5.33366 21.8813 5.33366 16.0013C5.33366 10.1213 10.1203 5.33464 16.0003 5.33464C21.8803 5.33464 26.667 10.1213 26.667 16.0013C26.667 21.8813 21.8803 26.668 16.0003 26.668ZM22.1203 10.108L13.3337 18.8946L9.88033 15.4546L8.00033 17.3346L13.3337 22.668L24.0003 12.0013L22.1203 10.108Z" fill="#2ECC71"/>
</svg>
