<svg width="24" height="24" viewBox="0 0 24 24" fill="none" xmlns="http://www.w3.org/2000/svg">
<path d="M14.0603 3.4464C14.7578 3.15186 15.5061 3 16.2623 3C17.0185 3 17.7668 3.15186 18.4643 3.4464C19.1617 3.74092 19.7942 4.17208 20.326 4.71431C20.8578 5.25617 21.2788 5.89847 21.5656 6.60406C21.8526 7.30976 22 8.06552 22 8.82833C22 9.59113 21.8526 10.3469 21.5656 11.0526C21.2787 11.7583 20.8577 12.4006 20.3258 12.9425L12.7135 20.7004C12.5255 20.892 12.2683 21 11.9998 21C11.7313 21 11.474 20.892 11.286 20.7004L3.67373 12.9425C2.59994 11.8482 2 10.3679 2 8.82833C2 7.28873 2.59995 5.80847 3.67373 4.71414C4.74815 3.61917 6.20946 3.00047 7.73725 3.00047C9.26504 3.00047 10.7263 3.61917 11.8008 4.71414L11.9998 4.91696L12.1986 4.71431C12.7304 4.17216 13.3629 3.74089 14.0603 3.4464Z" fill="#EA2C34"/>
</svg>
