<svg width="24" height="24" viewBox="0 0 24 24" fill="none" xmlns="http://www.w3.org/2000/svg">
<path d="M19.969 5.06441L19.9691 5.06455C20.455 5.55957 20.84 6.14677 21.1025 6.79238C21.365 7.43811 21.5 8.1299 21.5 8.82833C21.5 9.52675 21.365 10.2185 21.1025 10.8643C20.8399 11.51 20.4549 12.0972 19.969 12.5923L19.9689 12.5923L12.3567 20.3502C12.2626 20.446 12.134 20.5 11.9998 20.5C11.8655 20.5 11.7369 20.446 11.6429 20.3502L4.03062 12.5923C3.04953 11.5925 2.5 10.2384 2.5 8.82833C2.5 7.4183 3.04953 6.06418 4.03062 5.06433C5.01205 4.06413 6.34517 3.50047 7.73725 3.50047C9.12933 3.50047 10.4624 4.06413 11.4439 5.06433L11.6429 5.26714C11.7369 5.36297 11.8655 5.41696 11.9998 5.41696C12.134 5.41696 12.2626 5.36297 12.3567 5.26714L12.5555 5.0645L12.5556 5.06443C13.0414 4.56915 13.6188 4.17559 14.2548 3.90701C14.891 3.63839 15.5731 3.5 16.2623 3.5C16.9514 3.5 17.6336 3.63839 18.2698 3.90701C18.9059 4.17563 19.4832 4.56908 19.969 5.06441Z" stroke="#C3C3C3" stroke-linecap="round" stroke-linejoin="round"/>
</svg>
