<svg width="10" height="10" viewBox="0 0 10 10" fill="none" xmlns="http://www.w3.org/2000/svg">
<path fill-rule="evenodd" clip-rule="evenodd" d="M4.33301 8.99967C4.33301 9.36786 4.63148 9.66634 4.99967 9.66634C5.36786 9.66634 5.66634 9.36787 5.66634 8.99968V5.66634H8.99967C9.36786 5.66634 9.66634 5.36786 9.66634 4.99967C9.66634 4.63148 9.36787 4.33301 8.99968 4.33301H5.66634V0.999675C5.66634 0.631485 5.36786 0.333008 4.99967 0.333008C4.63148 0.333008 4.33301 0.631484 4.33301 0.999674L4.33301 4.33301H0.999674C0.631485 4.33301 0.333008 4.63148 0.333008 4.99967C0.333008 5.36786 0.631484 5.66634 0.999674 5.66634H4.33301L4.33301 8.99967Z" fill="#ED484F"/>
</svg>
