<svg width="19" height="11" viewBox="0 0 19 11" fill="none" xmlns="http://www.w3.org/2000/svg">
<path fill-rule="evenodd" clip-rule="evenodd" d="M14.1657 1.44448C14.4781 1.11403 14.4781 0.578276 14.1657 0.247833C13.8533 -0.0826109 13.3467 -0.0826109 13.0343 0.247833L7.05 6.5774L5.86569 5.32476C5.55327 4.99431 5.04674 4.99431 4.73432 5.32476C4.4219 5.6552 4.4219 6.19095 4.73432 6.5214L5.91863 7.77404L4.8 8.9572L1.36569 5.32476C1.05327 4.99431 0.546734 4.99431 0.234315 5.32476C-0.0781049 5.6552 -0.0781049 6.19095 0.234315 6.5214L4.23432 10.7522C4.54674 11.0826 5.05327 11.0826 5.36569 10.7522L7.05 8.97068L8.73432 10.7522C9.04674 11.0826 9.55327 11.0826 9.86569 10.7522L18.6657 1.44448C18.9781 1.11403 18.9781 0.578276 18.6657 0.247833C18.3533 -0.0826109 17.8467 -0.0826109 17.5343 0.247833L9.3 8.9572L8.18137 7.77404L14.1657 1.44448Z" fill="#26A95E"/>
</svg>
