<svg width="24" height="24" viewBox="0 0 24 24" fill="none" xmlns="http://www.w3.org/2000/svg">
<path d="M18.6667 2C19.5507 2 20.3986 2.35119 21.0237 2.97631C21.6488 3.60143 22 4.44928 22 5.33333V18.6667C22 19.5507 21.6488 20.3986 21.0237 21.0237C20.3986 21.6488 19.5507 22 18.6667 22H5.33333C4.44928 22 3.60143 21.6488 2.97631 21.0237C2.35119 20.3986 2 19.5507 2 18.6667V5.33333C2 4.44928 2.35119 3.60143 2.97631 2.97631C3.60143 2.35119 4.44928 2 5.33333 2H18.6667ZM15.3333 8.06667V5.75H13.425C11.675 5.75 10.575 7.08333 10.575 8.99167V10.3833H8.66667V12.6917H10.575V18.25H12.95V12.6917H14.8583L15.3333 10.3833H12.95V9.45C12.95 8.53333 13.4333 8.06667 14.3833 8.06667H15.3333Z" fill="black"/>
</svg>
