<svg width="24" height="24" viewBox="0 0 24 24" fill="none" xmlns="http://www.w3.org/2000/svg">
<path d="M11.9829 10.0001C12.7934 9.99317 13.5278 10.476 13.8428 11.2228C14.1577 11.9696 13.9908 12.8326 13.4202 13.4081C12.8496 13.9836 11.988 14.1579 11.2386 13.8493C10.4892 13.5408 10.0001 12.8105 10 12C9.99746 11.472 10.2048 10.9647 10.5764 10.5896C10.948 10.2145 11.4535 10.0024 11.9815 10.0001H11.9829Z" fill="#3A3A3A"/>
<path d="M19.9829 10.0001C20.7934 9.99317 21.5278 10.476 21.8428 11.2228C22.1577 11.9696 21.9908 12.8326 21.4202 13.4081C20.8496 13.9836 19.988 14.1579 19.2386 13.8493C18.4892 13.5408 18.0001 12.8105 18 12C17.9975 11.472 18.2048 10.9647 18.5764 10.5896C18.948 10.2145 19.4535 10.0024 19.9815 10.0001H19.9829Z" fill="#3A3A3A"/>
<path d="M3.98295 10.0001C4.79337 9.99317 5.52784 10.476 5.84277 11.2228C6.1577 11.9696 5.99082 12.8326 5.4202 13.4081C4.84959 13.9836 3.98805 14.1579 3.23862 13.8493C2.48919 13.5408 2.00005 12.8105 2.00002 12C1.99746 11.472 2.20481 10.9647 2.57642 10.5896C2.94804 10.2145 3.45347 10.0024 3.98147 10.0001H3.98295Z" fill="#3A3A3A"/>
</svg>
