<svg width="24" height="24" viewBox="0 0 24 24" fill="none" xmlns="http://www.w3.org/2000/svg">
<path d="M18.6667 2C19.5507 2 20.3986 2.35119 21.0237 2.97631C21.6488 3.60143 22 4.44928 22 5.33333V18.6667C22 19.5507 21.6488 20.3986 21.0237 21.0237C20.3986 21.6488 19.5507 22 18.6667 22H5.33333C4.44928 22 3.60143 21.6488 2.97631 21.0237C2.35119 20.3986 2 19.5507 2 18.6667V5.33333C2 4.44928 2.35119 3.60143 2.97631 2.97631C3.60143 2.35119 4.44928 2 5.33333 2H18.6667ZM14.5917 5.75H9.41667C7.275 5.75 5.83333 7.125 5.75 9.21667V14.575C5.75 15.6583 6.1 16.5833 6.80833 17.2667C7.46051 17.8769 8.31539 18.2241 9.20833 18.2417L9.43333 18.25H14.5667C15.65 18.25 16.5667 17.9 17.2167 17.2667C17.8652 16.6118 18.2329 15.7299 18.2417 14.8083L18.25 14.5917V9.41667C18.25 8.35 17.9 7.45 17.2417 6.79167C16.5935 6.14839 15.7214 5.78104 14.8083 5.76667L14.5917 5.75833V5.75ZM9.425 6.91667H14.625C15.375 6.91667 16.0083 7.13333 16.4583 7.58333C16.85 8 17.1 8.56667 17.1333 9.225V14.5833C17.1333 15.3667 16.8667 16 16.4083 16.425C15.9917 16.8167 15.4333 17.0417 14.7583 17.075H9.43333C8.675 17.075 8.04167 16.8583 7.59167 16.425C7.175 16.0083 6.95 15.45 6.91667 14.7583V9.4C6.91667 8.65 7.13333 8.01667 7.58333 7.56667C8.03885 7.15047 8.63299 6.91876 9.25 6.91667H14.625H9.43333H9.425ZM12 8.75C11.1847 8.80865 10.4219 9.17389 9.86508 9.77224C9.30823 10.3706 8.99866 11.1576 8.99866 11.975C8.99866 12.7924 9.30823 13.5794 9.86508 14.1778C10.4219 14.7761 11.1847 15.1414 12 15.2C12.8153 15.1414 13.5781 14.7761 14.1349 14.1778C14.6918 13.5794 15.0013 12.7924 15.0013 11.975C15.0013 11.1576 14.6918 10.3706 14.1349 9.77224C13.5781 9.17389 12.8153 8.80865 12 8.75ZM12 9.90833C12.5468 9.91269 13.0699 10.1318 13.4565 10.5185C13.8432 10.9051 14.0623 11.4282 14.0667 11.975C14.0623 12.5218 13.8432 13.0449 13.4565 13.4315C13.0699 13.8182 12.5468 14.0373 12 14.0417C11.4532 14.0373 10.9301 13.8182 10.5435 13.4315C10.1568 13.0449 9.93769 12.5218 9.93333 11.975C9.93769 11.4282 10.1568 10.9051 10.5435 10.5185C10.9301 10.1318 11.4532 9.91269 12 9.90833ZM15.35 7.94167C15.1555 7.94167 14.969 8.01893 14.8315 8.15645C14.6939 8.29398 14.6167 8.48051 14.6167 8.675C14.6167 8.86949 14.6939 9.05602 14.8315 9.19354C14.969 9.33107 15.1555 9.40833 15.35 9.40833C15.5445 9.40833 15.731 9.33107 15.8685 9.19354C16.0061 9.05602 16.0833 8.86949 16.0833 8.675C16.0833 8.48051 16.0061 8.29398 15.8685 8.15645C15.731 8.01893 15.5445 7.94167 15.35 7.94167Z" fill="black"/>
</svg>
