<svg width="24" height="24" viewBox="0 0 24 24" fill="none" xmlns="http://www.w3.org/2000/svg">
<path fill-rule="evenodd" clip-rule="evenodd" d="M4 7.32878V17.25C4 17.6338 4.33554 18 4.8 18H19.2C19.6645 18 20 17.6338 20 17.25V7.32878L12.6585 13.7526C12.2815 14.0825 11.7185 14.0825 11.3415 13.7526L4 7.32878ZM18.4814 6H5.51857L12 11.6712L18.4814 6ZM4.8 4C3.28446 4 2 5.20885 2 6.75V17.25C2 18.7912 3.28446 20 4.8 20H19.2C20.7155 20 22 18.7912 22 17.25V6.75C22 5.20885 20.7155 4 19.2 4H4.8Z" fill="#3A3A3A"/>
</svg>
