<svg width="24" height="24" viewBox="0 0 24 24" fill="none" xmlns="http://www.w3.org/2000/svg">
<path fill-rule="evenodd" clip-rule="evenodd" d="M7.77503 5.84574C8.90461 4.65749 10.4255 4 12 4C13.5745 4 15.0954 4.65749 16.225 5.84574C17.3562 7.03572 18 8.66001 18 10.3636C18 12.844 16.4637 15.2652 14.7569 17.1603C13.9211 18.0884 13.0823 18.8486 12.4516 19.3769C12.2846 19.5168 12.1327 19.64 12 19.7453C11.8673 19.64 11.7154 19.5168 11.5484 19.3769C10.9177 18.8486 10.0789 18.0884 9.24308 17.1603C7.53632 15.2652 6 12.844 6 10.3636C6 8.66001 6.64381 7.03572 7.77503 5.84574ZM11.4253 21.8184C11.4256 21.8186 11.4258 21.8187 12 21L11.4258 21.8187C11.7705 22.0604 12.2295 22.0604 12.5742 21.8187L12 21C12.5742 21.8187 12.5744 21.8186 12.5747 21.8184L12.5754 21.8179L12.5772 21.8166L12.5828 21.8127L12.6014 21.7994C12.6171 21.7882 12.6393 21.7722 12.6675 21.7517C12.7238 21.7106 12.8044 21.6511 12.9057 21.5741C13.1083 21.4203 13.3942 21.1962 13.7359 20.9101C14.4177 20.3389 15.3289 19.5139 16.2431 18.4987C18.0363 16.5076 20 13.6105 20 10.3636C20 8.16134 19.1688 6.0397 17.6745 4.46777C16.1786 2.89413 14.1385 2 12 2C9.86146 2 7.82141 2.89413 6.32548 4.46777C4.83118 6.0397 4 8.16134 4 10.3636C4 13.6105 5.96368 16.5076 7.75692 18.4987C8.67111 19.5139 9.58227 20.3389 10.2641 20.9101C10.6058 21.1962 10.8917 21.4203 11.0943 21.5741C11.1956 21.6511 11.2762 21.7106 11.3325 21.7517C11.3607 21.7722 11.3829 21.7882 11.3986 21.7994L11.4172 21.8127L11.4228 21.8166L11.4246 21.8179L11.4253 21.8184ZM11 10C11 9.44772 11.4477 9 12 9C12.5523 9 13 9.44772 13 10C13 10.5523 12.5523 11 12 11C11.4477 11 11 10.5523 11 10ZM12 7C10.3431 7 9 8.34315 9 10C9 11.6569 10.3431 13 12 13C13.6569 13 15 11.6569 15 10C15 8.34315 13.6569 7 12 7Z" fill="#3A3A3A"/>
</svg>
