<svg width="24" height="24" viewBox="0 0 24 24" fill="none" xmlns="http://www.w3.org/2000/svg">
<path fill-rule="evenodd" clip-rule="evenodd" d="M21.8112 8.6552L21.7768 8.53482C21.7768 8.53482 21.7597 8.50043 21.7597 8.48323L19.5966 2.46432C19.4936 2.18917 19.2361 2 18.927 2H5.05579C4.76395 2 4.48927 2.18917 4.38627 2.46432L2.24034 8.44884C2.23176 8.46604 2.22747 8.48323 2.22318 8.50043C2.21888 8.51763 2.21459 8.53482 2.20601 8.55202L2.13734 8.75838C2.12017 8.80997 2.103 8.86156 2.103 8.93035C2.03433 9.18831 2 9.41187 2 9.65262C2 10.9596 2.82403 12.0774 3.99142 12.4901V21.2949C3.99142 21.6905 4.30043 22 4.69528 22H19.5794C19.9743 22 20.2833 21.6905 20.2833 21.2949V12.3697C21.2961 11.871 22 10.8392 22 9.65262C22 9.44626 21.9657 9.2227 21.9142 8.99914C21.897 8.86156 21.8627 8.75838 21.8112 8.6552ZM18.8584 20.5899H5.39918V12.6449C5.41635 12.6449 5.43781 12.6406 5.45927 12.6363C5.48073 12.632 5.50219 12.6277 5.51936 12.6277C6.25755 12.5074 6.89275 12.129 7.35627 11.5787C7.90562 12.2494 8.74682 12.6621 9.67386 12.6621C10.6009 12.6621 11.4421 12.2322 11.9915 11.5787C12.5408 12.2494 13.382 12.6621 14.3091 12.6621C15.2361 12.6621 16.0773 12.2322 16.6267 11.5787C17.0215 12.0602 17.5537 12.4042 18.1717 12.559C18.1803 12.559 18.1889 12.5633 18.1975 12.5676C18.2061 12.5719 18.2146 12.5762 18.2232 12.5762L18.2233 12.5762C18.2919 12.5934 18.3606 12.6106 18.4464 12.6277C18.4636 12.6277 18.485 12.632 18.5065 12.6363C18.5279 12.6406 18.5494 12.6449 18.5666 12.6449C18.5923 12.6449 18.6224 12.6492 18.6524 12.6535L18.6524 12.6535C18.6825 12.6578 18.7125 12.6621 18.7382 12.6621C18.7554 12.6621 18.7769 12.6664 18.7983 12.6707C18.8198 12.675 18.8412 12.6793 18.8584 12.6793V20.5899ZM19.1846 11.2519C19.2532 11.2347 19.3219 11.2175 19.4077 11.2003C20.0773 10.994 20.5751 10.3749 20.5751 9.65262C20.5751 9.51504 20.558 9.37747 20.5064 9.2055C20.5064 9.1969 20.5022 9.184 20.4979 9.1711C20.4936 9.15821 20.4893 9.14531 20.4893 9.13671L20.4549 9.03353C20.4549 9.01633 20.4378 8.98194 20.4378 8.98194L18.4292 3.39294H5.55366L3.49357 9.11951C3.49357 9.12811 3.48928 9.14101 3.48499 9.15391C3.4807 9.1668 3.47641 9.1797 3.47641 9.1883C3.4249 9.36027 3.40774 9.49785 3.40774 9.63542C3.40774 10.4437 3.99143 11.0972 4.74679 11.2347H4.79829C4.83263 11.2519 4.8498 11.2519 4.86696 11.2519C4.89271 11.2519 4.92276 11.2562 4.9528 11.2605C4.98284 11.2648 5.01289 11.2691 5.03864 11.2691C5.14164 11.2691 5.24465 11.2519 5.34765 11.2347C5.43349 11.2175 5.50216 11.2003 5.58799 11.1659C5.59787 11.1561 5.60206 11.1519 5.60711 11.1501C5.61084 11.1487 5.61504 11.1487 5.62233 11.1487C6.17168 10.9252 6.5837 10.4093 6.6352 9.773V9.7558C6.65237 9.72141 6.65237 9.68701 6.65237 9.65262C6.65237 9.25709 6.96138 8.94754 7.35623 8.94754C7.75108 8.94754 8.0601 9.25709 8.0601 9.65262V9.7386V9.773C8.1116 10.3921 8.52362 10.9252 9.07297 11.1487C9.09014 11.1659 9.09014 11.1659 9.10731 11.1659C9.15023 11.1745 9.19315 11.1874 9.23607 11.2003C9.27898 11.2132 9.3219 11.2261 9.36482 11.2347C9.46782 11.2519 9.57083 11.2691 9.67383 11.2691C9.77683 11.2691 9.87984 11.2519 9.98284 11.2347L9.98286 11.2347C10.0687 11.2175 10.1545 11.2003 10.2404 11.1659C10.2575 11.1487 10.2575 11.1487 10.2747 11.1487C10.824 10.9252 11.2361 10.4093 11.2876 9.773V9.7558C11.3047 9.72141 11.3047 9.68701 11.3047 9.65262C11.3047 9.25709 11.6137 8.94754 12.0086 8.94754C12.4034 8.94754 12.7125 9.25709 12.7125 9.65262C12.7125 9.66981 12.7167 9.68271 12.721 9.69561C12.7253 9.70851 12.7296 9.72141 12.7296 9.7386V9.773C12.7811 10.3921 13.1931 10.9252 13.7425 11.1487C13.7597 11.1659 13.7597 11.1659 13.7768 11.1659C13.8047 11.1729 13.8353 11.1827 13.8676 11.193C13.9151 11.2082 13.9661 11.2245 14.0172 11.2347C14.1202 11.2519 14.2232 11.2691 14.3262 11.2691C14.4292 11.2691 14.5322 11.2519 14.6352 11.2347L14.6352 11.2347C14.7211 11.2175 14.8069 11.2003 14.8927 11.1659C14.9026 11.1561 14.9068 11.1519 14.9118 11.1501C14.9156 11.1487 14.9198 11.1487 14.927 11.1487C15.4764 10.9252 15.8884 10.4093 15.9399 9.773V9.7558C15.9571 9.72141 15.9571 9.68701 15.9571 9.65262C15.9571 9.25709 16.2661 8.94754 16.661 8.94754C17.0558 8.94754 17.3648 9.25709 17.3648 9.65262V9.7386V9.773C17.4163 10.3921 17.8283 10.9252 18.3777 11.1487C18.3949 11.1659 18.3949 11.1659 18.412 11.1659C18.4398 11.1729 18.4705 11.1827 18.5028 11.193C18.5502 11.2082 18.6013 11.2245 18.6524 11.2347C18.7554 11.2519 18.8584 11.2691 18.9614 11.2691C19.0301 11.2691 19.1159 11.2691 19.1846 11.2519Z" fill="#3A3A3A"/>
</svg>
