<svg width="24" height="24" viewBox="0 0 24 24" fill="none" xmlns="http://www.w3.org/2000/svg">
<path fill-rule="evenodd" clip-rule="evenodd" d="M3.70213 10C3.70213 6.52178 6.52178 3.70213 10 3.70213C13.4782 3.70213 16.2979 6.52178 16.2979 10C16.2979 13.4782 13.4782 16.2979 10 16.2979C6.52178 16.2979 3.70213 13.4782 3.70213 10ZM10 2C5.58172 2 2 5.58172 2 10C2 14.4183 5.58172 18 10 18C11.701 18 13.278 17.4691 14.5743 16.564L20.439 21.8981C20.7952 22.222 21.3451 22.194 21.6672 21.8354C21.9893 21.4768 21.9617 20.9235 21.6055 20.5996L15.8963 15.4069C17.2027 13.9831 18 12.0846 18 10C18 5.58172 14.4183 2 10 2Z" fill="#3A3A3A"/>
</svg>
