<svg width="24" height="24" viewBox="0 0 24 24" fill="none" xmlns="http://www.w3.org/2000/svg">
<path d="M18.6667 2C19.5507 2 20.3986 2.35119 21.0237 2.97631C21.6488 3.60143 22 4.44928 22 5.33333V18.6667C22 19.5507 21.6488 20.3986 21.0237 21.0237C20.3986 21.6488 19.5507 22 18.6667 22H5.33333C4.44928 22 3.60143 21.6488 2.97631 21.0237C2.35119 20.3986 2 19.5507 2 18.6667V5.33333C2 4.44928 2.35119 3.60143 2.97631 2.97631C3.60143 2.35119 4.44928 2 5.33333 2H18.6667ZM14.9833 6.83333C14.5708 6.83247 14.1634 6.925 13.7916 7.10401C13.4199 7.28302 13.0936 7.54385 12.837 7.86695C12.5804 8.19004 12.4004 8.56703 12.3102 8.96964C12.2201 9.37224 12.2223 9.79003 12.3167 10.1917C11.2284 10.1376 10.1637 9.85521 9.19171 9.36276C8.21974 8.87031 7.36226 8.17886 6.675 7.33333C6.32087 7.93449 6.21161 8.64884 6.36985 9.32837C6.5281 10.0079 6.94172 10.6005 7.525 10.9833C7.09045 10.9728 6.66471 10.8586 6.28333 10.65V10.675C6.28275 11.3078 6.50173 11.9212 6.90294 12.4105C7.30414 12.8999 7.8627 13.2349 8.48333 13.3583C8.07868 13.4695 7.65395 13.4866 7.24167 13.4083C7.41696 13.9521 7.75776 14.4275 8.21644 14.7682C8.67512 15.1088 9.22876 15.2977 9.8 15.3083C9.2325 15.7541 8.58271 16.0836 7.88779 16.2781C7.19286 16.4725 6.46642 16.5281 5.75 16.4417C7.00072 17.2438 8.45584 17.669 9.94167 17.6667C14.975 17.6667 17.725 13.5 17.725 9.88333V9.53333C18.2585 9.14569 18.7184 8.66595 19.0833 8.11667C18.5917 8.33333 18.0667 8.48333 17.5083 8.55C18.075 8.20833 18.5083 7.675 18.7167 7.03333C18.1833 7.35 17.6 7.575 16.975 7.7C16.7189 7.42608 16.4092 7.20778 16.0651 7.05868C15.7211 6.90958 15.35 6.83288 14.975 6.83333H14.9833Z" fill="black"/>
</svg>
