<svg width="54" height="56" viewBox="0 0 54 56" fill="none" xmlns="http://www.w3.org/2000/svg">
<path fill-rule="evenodd" clip-rule="evenodd" d="M24.7667 42.1013C24.7667 43.3347 25.7666 44.3346 27 44.3346C28.2335 44.3346 29.2334 43.3347 29.2334 42.1013V30.3346H40.3C41.5887 30.3346 42.6334 29.29 42.6334 28.0013C42.6334 26.7126 41.5887 25.668 40.3 25.668H29.2334V13.9013C29.2334 12.6679 28.2335 11.668 27 11.668C25.7666 11.668 24.7667 12.6679 24.7667 13.9013V25.668H13.7C12.4114 25.668 11.3667 26.7126 11.3667 28.0013C11.3667 29.29 12.4114 30.3346 13.7 30.3346H24.7667V42.1013Z" fill="#F0646A"/>
</svg>
