<svg xmlns="http://www.w3.org/2000/svg" xmlns:xlink="http://www.w3.org/1999/xlink" width="34" height="22" viewBox="0 0 34 22">
    <defs>
        <path id="a" d="M.012 22V.008h33.89V22z"/>
    </defs>
    <g fill="none" fill-rule="evenodd">
        <g>
            <mask id="b" fill="#fff">
                <use xlink:href="#a"/>
            </mask>
            <path fill="#1A1919" d="M30.866.007H2.688l-.293.005a4.184 4.184 0 0 0-.637.057A2.038 2.038 0 0 0 .26 1.174a2.188 2.188 0 0 0-.2.615c-.038.213-.05.43-.056.646C.002 2.534 0 2.633 0 2.73v16.545c.001.099.002.198.005.297.006.215.018.432.056.645.038.217.101.418.2.615a2.059 2.059 0 0 0 1.497 1.105c.21.038.425.051.637.057.098.002.196.004.293.004l.348.001h28.177l.294-.005c.212-.006.427-.019.637-.057a2.031 2.031 0 0 0 1.497-1.106c.099-.196.162-.397.2-.614.038-.213.05-.43.056-.645l.004-.297V3.084 2.73c0-.098-.002-.197-.004-.296a4.325 4.325 0 0 0-.057-.646 2.175 2.175 0 0 0-.199-.614 2.07 2.07 0 0 0-.891-.903 2.131 2.131 0 0 0-.606-.203 4.193 4.193 0 0 0-.637-.057 15.415 15.415 0 0 0-.294-.004h-.347" mask="url(#b)"/>
        </g>
        <path fill="#FFFFFE" d="M30.866.74h.342l.279.005c.162.005.352.014.529.046.154.028.283.07.406.134a1.31 1.31 0 0 1 .575.583c.062.124.104.254.132.411.031.178.04.37.044.536.003.093.004.186.005.282v16.536c0 .093-.002.186-.005.28a3.677 3.677 0 0 1-.045.537 1.437 1.437 0 0 1-.132.41 1.325 1.325 0 0 1-.979.717c-.18.032-.378.041-.527.045-.093.002-.187.004-.282.004H2.692c-.094 0-.187-.002-.277-.004a3.64 3.64 0 0 1-.53-.045 1.404 1.404 0 0 1-.406-.135 1.315 1.315 0 0 1-.573-.582 1.45 1.45 0 0 1-.133-.412c-.032-.179-.04-.37-.045-.535a14.356 14.356 0 0 1-.004-.281V2.736c0-.094.001-.188.004-.281.004-.165.013-.357.045-.537.028-.155.07-.286.133-.411a1.324 1.324 0 0 1 .98-.716c.177-.032.367-.041.53-.046l.277-.004h28.173"/>
        <path fill="#1A1919" d="M8.911 7.431c.288-.364.483-.853.431-1.353-.42.021-.934.281-1.231.646-.267.312-.503.822-.442 1.3.473.042.945-.239 1.242-.593M9.337 8.118c-.686-.042-1.269.394-1.596.394-.328 0-.83-.373-1.372-.363-.706.01-1.361.415-1.72 1.058-.737 1.287-.194 3.197.522 4.245.348.518.768 1.09 1.32 1.069.523-.02.727-.343 1.362-.343.634 0 .819.343 1.371.333.574-.01.932-.52 1.28-1.038.4-.592.563-1.162.573-1.194-.01-.01-1.105-.436-1.115-1.712-.01-1.069.86-1.577.9-1.609-.491-.736-1.259-.82-1.525-.84M14.487 10.782h1.369c1.038 0 1.629-.566 1.629-1.548 0-.982-.591-1.543-1.624-1.543h-1.374v3.091zm1.688-4.11c1.49 0 2.53 1.04 2.53 2.557 0 1.521-1.06 2.568-2.567 2.568h-1.65v2.66h-1.193V6.671h2.88zM22.62 12.342v-.437l-1.326.086c-.745.049-1.133.329-1.133.82 0 .475.404.782 1.038.782.809 0 1.421-.523 1.421-1.251zm-3.62.501c0-.998.75-1.57 2.135-1.656l1.485-.092v-.431c0-.631-.41-.977-1.14-.977-.6 0-1.037.313-1.128.794h-1.075c.032-1.01.969-1.743 2.236-1.743 1.363 0 2.252.723 2.252 1.845v3.873h-1.102v-.933h-.027c-.314.61-1.006.993-1.757.993-1.107 0-1.88-.67-1.88-1.673zM24.778 16.539v-.933c.075.01.255.021.351.021.527 0 .825-.226 1.007-.81l.106-.344-2.018-5.665h1.246l1.406 4.596h.026l1.406-4.596h1.214l-2.093 5.95c-.479 1.366-1.027 1.813-2.188 1.813-.09 0-.383-.01-.463-.032"/>
    </g>
</svg>
