<?xml version="1.0" encoding="UTF-8"?>
<svg width="24px" height="21px" viewBox="0 0 24 21" version="1.1" xmlns="http://www.w3.org/2000/svg" xmlns:xlink="http://www.w3.org/1999/xlink">
    <!-- Generator: Sketch 51.3 (57544) - http://www.bohemiancoding.com/sketch -->
    <title>video-camera</title>
    <desc>Created with Sketch.</desc>
    <defs></defs>
    <g id="Feed" stroke="none" strokeWidth="1" fill="none" fillRule="evenodd">
        <g id="1.1-Feed" transform="translate(-627.000000, -327.000000)" fill="#82D0FC" fillRule="nonzero">
            <g id="Group-5" transform="translate(470.000000, 194.000000)">
                <g id="video-camera" transform="translate(157.000000, 133.000000)">
                    <path d="M23.8461538,11.5058236 C23.5692308,11.0266223 22.9230769,10.8469218 22.4,11.1464226 L18.8923077,13.1231281 L18,13.6322795 L18,18.3643927 L18.8307692,18.843594 C18.8615385,18.843594 18.8615385,18.8735441 18.8923077,18.8735441 L22.3384615,20.8202995 C22.4923077,20.9400998 22.7076923,21 22.9230769,21 C23.5076923,21 23.9692308,20.5507488 23.9692308,19.9816972 L23.9692308,15.968386 L24,12.014975 C24,11.8352745 23.9692308,11.655574 23.8461538,11.5058236 Z" id="Shape"></path>
                    <path d="M4.50014189,9 C6.98764109,9 9,6.98757764 9,4.5 C9,2.01242236 6.98764109,0 4.50014189,0 C2.01264268,0 0.000283773292,2.01242236 0.000283773292,4.5 C-0.027665656,6.98757764 2.01264268,9 4.50014189,9 Z M4.50014189,2.6552795 C5.53427077,2.6552795 6.34480422,3.49378882 6.34480422,4.5 C6.34480422,5.53416149 5.50632134,6.3447205 4.50014189,6.3447205 C3.49396243,6.3447205 2.65547955,5.50621118 2.65547955,4.5 C2.62753013,3.46583851 3.466013,2.6552795 4.50014189,2.6552795 Z" id="Shape"></path>
                    <path d="M16.8132635,9.29850746 C16.0418848,9.68656716 15.1815009,9.92537313 14.2617801,9.92537313 C13.1343805,9.92537313 12.0663176,9.59701493 11.1762653,9 L7.79406632,9 C6.90401396,9.59701493 5.83595113,9.92537313 4.70855148,9.92537313 C3.78883072,9.92537313 2.92844677,9.71641791 2.15706806,9.29850746 C1.47469459,9.68656716 1,10.4626866 1,11.2985075 L1,18.5820896 C1,19.9253731 2.09773124,21 3.40314136,21 L15.5968586,21 C16.9319372,21 18,19.8955224 18,18.5820896 L18,11.2985075 C17.9703316,10.4626866 17.495637,9.68656716 16.8132635,9.29850746 Z" id="Shape"></path>
                    <path d="M13.5,9 C15.9875776,9 18,6.98757764 18,4.5 C18,2.01242236 15.9875776,0 13.5,0 C11.0124224,0 9,2.01242236 9,4.5 C9,6.98757764 11.0124224,9 13.5,9 Z M13.5,2.6552795 C14.5341615,2.6552795 15.3447205,3.49378882 15.3447205,4.5 C15.3447205,5.53416149 14.5062112,6.3447205 13.5,6.3447205 C12.4937888,6.3447205 11.6552795,5.50621118 11.6552795,4.5 C11.6552795,3.46583851 12.4658385,2.6552795 13.5,2.6552795 Z" id="Shape"></path>
                </g>
            </g>
        </g>
    </g>
</svg>