<?xml version="1.0" encoding="UTF-8"?>
<svg width="19px" height="20px" viewBox="0 0 19 20" version="1.1" xmlns="http://www.w3.org/2000/svg" xmlns:xlink="http://www.w3.org/1999/xlink">
    <!-- Generator: Sketch 51.3 (57544) - http://www.bohemiancoding.com/sketch -->
    <title>picture</title>
    <desc>Created with Sketch.</desc>
    <defs></defs>
    <g id="Feed" stroke="none" strokeWidth="1" fill="none" fillRule="evenodd">
        <g id="1.1-Feed" transform="translate(-539.000000, -329.000000)" fillRule="nonzero">
            <g id="Group-5" transform="translate(470.000000, 194.000000)">
                <g id="picture" transform="translate(69.000000, 135.000000)">
                    <path d="M0,0 L19,0 L19,20 L0,20 L0,0 Z M0,0 L0,15.3846154 L0,20 L19,20 L19,15.3846154 L19,0 L0,0 Z M0.76,0.769230769 L18.24,0.769230769 L18.24,11.0488462 L14.31688,7.40884615 C14.2424,7.34 14.14436,7.30576923 14.04328,7.30807692 C13.94258,7.31269231 13.84758,7.35769231 13.77956,7.43307692 L10.05784,11.5588462 L8.2555,9.73461538 C8.11338,9.59115385 7.88614,9.58384615 7.73566,9.71769231 L1.37636,15.3846154 L0.76,15.3846154 L0.76,0.769230769 Z M18.24,19.2307692 L0.76,19.2307692 L0.76,16.1538462 L18.24,16.1538462 L18.24,19.2307692 Z M2.52662,15.3846154 L7.96974,10.5342308 L11.8845,14.4961538 C12.03308,14.6465385 12.27324,14.6465385 12.42182,14.4961538 C12.5704,14.3457692 12.5704,14.1026923 12.42182,13.9523077 L10.59516,12.1034615 L14.08394,8.23653846 L18.24,12.0923077 L18.24,15.3846154 L2.52662,15.3846154 Z" id="Shape" fill="#63FFD1"></path>
                    <path d="M4,10 C5.102891,10 6,9.102891 6,8.00035913 C6,6.897109 5.102891,6 4,6 C2.897109,6 2,6.897109 2,8 C2,9.102891 2.897109,10 4,10 Z M4,6.71826181 C4.70676962,6.71826181 5.28173819,7.29358951 5.28173819,8 C5.28173819,8.70641049 4.70676962,9.28173819 4,9.28173819 C3.29323038,9.28173819 2.71826181,8.70676962 2.71826181,8.00035913 C2.71826181,7.29394864 3.29323038,6.71826181 4,6.71826181 Z" id="Shape" fill="#FFFFFF"></path>
                </g>
            </g>
        </g>
    </g>
</svg>