<?xml version="1.0" encoding="UTF-8"?>
<svg width="22px" height="22px" viewBox="0 0 22 22" version="1.1" xmlns="http://www.w3.org/2000/svg" xmlns:xlink="http://www.w3.org/1999/xlink">
    <!-- Generator: Sketch 51.3 (57544) - http://www.bohemiancoding.com/sketch -->
    <title>shopping-bag</title>
    <desc>Created with Sketch.</desc>
    <defs></defs>
    <g id="Feed" stroke="none" strokeWidth="1" fill="none" fillRule="evenodd">
        <g id="1.1-Feed" transform="translate(-713.000000, -327.000000)" fill="#DB95D1" fillRule="nonzero" stroke="#DB95D1">
            <g id="Group-5" transform="translate(470.000000, 194.000000)">
                <g id="shopping-bag" transform="translate(244.000000, 134.000000)">
                    <path d="M8.62321792,19.5403587 C8.62321792,19.293722 8.44399185,19.0964126 8.21995927,19.0964126 L2.59470468,19.0964126 C1.6089613,19.0964126 0.810590631,18.2130045 0.810590631,17.132287 L0.810590631,4.32959641 L3.25458248,4.32959641 L3.25458248,6.00224215 C3.25458248,6.24887892 3.43380855,6.44618834 3.65784114,6.44618834 C3.88187373,6.44618834 4.0610998,6.24887892 4.0610998,6.00224215 L4.0610998,4.32959641 L8.92057026,4.32959641 L8.92057026,6.00224215 C8.92057026,6.24887892 9.09979633,6.44618834 9.32382892,6.44618834 C9.54786151,6.44618834 9.72708758,6.24887892 9.72708758,6.00224215 L9.72708758,4.32959641 L12.1710794,4.32959641 L12.1710794,5.20403587 C12.1710794,5.45067265 12.3503055,5.64798206 12.5743381,5.64798206 C12.7983707,5.64798206 12.9775967,5.45067265 12.9775967,5.20403587 L12.9775967,3.88565022 C12.9775967,3.63901345 12.7983707,3.44170404 12.5743381,3.44170404 L9.72301426,3.44170404 C9.65376782,1.54484305 8.23217923,0.0201793722 6.48879837,0.0201793722 C4.74541752,0.0201793722 3.32382892,1.54035874 3.25458248,3.44170404 L0.403258656,3.44170404 C0.179226069,3.44170404 -2.84217094e-14,3.63901345 -2.84217094e-14,3.88565022 L-2.84217094e-14,17.132287 C-2.84217094e-14,18.706278 1.16089613,19.9843049 2.59063136,19.9843049 L8.21588595,19.9843049 C8.44399185,19.9843049 8.62321792,19.7825112 8.62321792,19.5403587 Z M6.48879837,0.908071749 C7.78411405,0.908071749 8.84725051,2.03363229 8.91649695,3.44170404 L4.0610998,3.44170404 C4.13034623,2.03363229 5.19348269,0.908071749 6.48879837,0.908071749 Z" id="Shape"></path>
                    <path d="M12.0488798,8.9573991 L12.0488798,9.46412556 L9.82892057,9.46412556 C9.60488798,9.46412556 9.42566191,9.66143498 9.42566191,9.90807175 L9.42566191,17.6973094 C9.42566191,18.9573991 10.3543788,19.9798206 11.4989817,19.9798206 L17.8900204,19.9798206 C19.0346232,19.9798206 19.9633401,18.9573991 19.9633401,17.6973094 L19.9633401,9.90807175 C19.9633401,9.66143498 19.7841141,9.46412556 19.5600815,9.46412556 L17.3401222,9.46412556 L17.3401222,8.9573991 C17.3401222,7.35201794 16.1547862,6.0426009 14.6924644,6.0426009 C13.2342159,6.0470852 12.0488798,7.35201794 12.0488798,8.9573991 Z M16.9368635,11.8991031 C17.1608961,11.8991031 17.3401222,11.7017937 17.3401222,11.455157 L17.3401222,10.3520179 L19.1568228,10.3520179 L19.1568228,17.6973094 C19.1568228,18.4686099 18.586558,19.0919283 17.8900204,19.0919283 L11.4989817,19.0919283 C10.7983707,19.0919283 10.2321792,18.4641256 10.2321792,17.6973094 L10.2321792,10.3520179 L12.0488798,10.3520179 L12.0488798,11.455157 C12.0488798,11.7017937 12.2281059,11.8991031 12.4521385,11.8991031 C12.6761711,11.8991031 12.8553971,11.7017937 12.8553971,11.455157 L12.8553971,10.3520179 L16.5336049,10.3520179 L16.5336049,11.455157 C16.5336049,11.7017937 16.712831,11.8991031 16.9368635,11.8991031 Z M16.5336049,8.9573991 L16.5336049,9.46412556 L12.8553971,9.46412556 L12.8553971,8.9573991 C12.8553971,7.84080717 13.6822811,6.93049327 14.6965377,6.93049327 C15.706721,6.93497758 16.5336049,7.84080717 16.5336049,8.9573991 Z" id="Shape"></path>
                </g>
            </g>
        </g>
    </g>
</svg>