<svg xmlns="http://www.w3.org/2000/svg" width="91" height="16" viewBox="0 0 91 16">
    <g fill="none" fill-rule="evenodd">
        <path fill="#FF5F00" d="M9.442 14.256h6.974V1.71H9.442z"/>
        <path fill="#EB001B" d="M9.885 7.983a7.968 7.968 0 0 1 3.044-6.273A7.93 7.93 0 0 0 8.003.004C3.601.004.033 3.576.033 7.983c0 4.406 3.568 7.979 7.97 7.979a7.93 7.93 0 0 0 4.926-1.706 7.968 7.968 0 0 1-3.044-6.273"/>
        <path fill="#F79E1B" d="M25.576 12.927v-.31h-.08l-.093.213-.093-.213h-.081v.31h.057v-.233l.087.2h.06l.086-.201v.234h.057zm-.511 0v-.257h.103v-.052h-.263v.052h.103v.257h.057zm.76-4.944c0 4.406-3.568 7.979-7.97 7.979a7.93 7.93 0 0 1-4.926-1.706 7.968 7.968 0 0 0 3.044-6.273A7.968 7.968 0 0 0 12.93 1.71 7.93 7.93 0 0 1 17.855.004c4.402 0 7.97 3.572 7.97 7.979z"/>
        <path fill="#000" d="M41.744 8.017c0-.932.61-1.698 1.609-1.698.953 0 1.596.733 1.596 1.698 0 .966-.643 1.699-1.596 1.699-.999 0-1.609-.766-1.609-1.699zm4.292 0V5.364h-1.153v.644c-.366-.477-.92-.777-1.675-.777-1.486 0-2.65 1.166-2.65 2.786 0 1.621 1.164 2.787 2.65 2.787.755 0 1.309-.3 1.675-.777v.643h1.153V8.017zm38.948 0c0-.932.61-1.698 1.607-1.698.954 0 1.598.733 1.598 1.698 0 .966-.644 1.699-1.598 1.699-.997 0-1.607-.766-1.607-1.699zm5.582 2.402v.083h.076a.076.076 0 0 0 .042-.01c.01-.007.016-.018.016-.032a.035.035 0 0 0-.016-.031.076.076 0 0 0-.042-.01h-.076zm.077-.06c.04 0 .071.01.093.028a.09.09 0 0 1 .032.073.084.084 0 0 1-.026.064.123.123 0 0 1-.073.03l.102.119h-.08l-.095-.117h-.03v.117h-.067v-.313h.144zm-.02.421a.251.251 0 0 0 .184-.077.257.257 0 0 0 .076-.185.26.26 0 0 0-.363-.242.262.262 0 0 0-.14.14.264.264 0 0 0 .243.364zm0-.6a.34.34 0 0 1 .316.468.345.345 0 0 1-.451.18.346.346 0 0 1-.183-.18.323.323 0 0 1 0-.261.34.34 0 0 1 .318-.206zm-1.348-2.163V3.233h-1.153v2.775c-.366-.477-.92-.777-1.675-.777-1.486 0-2.65 1.166-2.65 2.786 0 1.621 1.164 2.787 2.65 2.787.754 0 1.309-.3 1.675-.777v.643h1.153V8.017zM60.342 6.263c.743 0 1.22.466 1.342 1.288h-2.75c.122-.766.587-1.288 1.408-1.288zm.022-1.032c-1.552 0-2.639 1.132-2.639 2.786 0 1.688 1.131 2.787 2.717 2.787.798 0 1.53-.2 2.174-.744l-.566-.855a2.525 2.525 0 0 1-1.542.555c-.743 0-1.42-.344-1.585-1.299h3.937c.01-.144.022-.288.022-.444-.011-1.654-1.032-2.786-2.518-2.786zm13.918 2.786c0-.932.61-1.698 1.608-1.698.954 0 1.597.733 1.597 1.698 0 .966-.643 1.699-1.597 1.699-.998 0-1.608-.766-1.608-1.699zm4.292 0V5.364H77.42v.644c-.366-.477-.92-.777-1.674-.777-1.486 0-2.65 1.166-2.65 2.786 0 1.621 1.164 2.787 2.65 2.787.754 0 1.308-.3 1.674-.777v.643h1.154V8.017zm-10.802 0c0 1.61 1.12 2.787 2.828 2.787.799 0 1.33-.178 1.908-.633l-.555-.933c-.432.311-.887.478-1.386.478-.92-.011-1.597-.677-1.597-1.699 0-1.02.676-1.687 1.597-1.698.499 0 .954.166 1.386.477l.555-.932c-.577-.456-1.11-.633-1.908-.633-1.708 0-2.828 1.177-2.828 2.786zm14.86-2.786c-.665 0-1.097.31-1.397.777v-.644h-1.142v5.306h1.153V7.695c0-.877.377-1.365 1.131-1.365.233 0 .477.033.721.133l.355-1.088a2.461 2.461 0 0 0-.82-.144zm-30.896.555c-.554-.366-1.32-.555-2.162-.555-1.342 0-2.207.644-2.207 1.698 0 .866.643 1.4 1.83 1.566l.543.077c.632.09.932.256.932.555 0 .411-.422.644-1.209.644-.799 0-1.375-.255-1.763-.555l-.544.9c.632.466 1.43.688 2.296.688 1.53 0 2.417-.722 2.417-1.732 0-.933-.698-1.421-1.852-1.588l-.543-.077c-.499-.067-.898-.167-.898-.522 0-.388.377-.622 1.009-.622.676 0 1.33.256 1.652.456l.5-.933zm14.872-.555c-.666 0-1.098.31-1.398.777v-.644h-1.142v5.306h1.154V7.695c0-.877.377-1.365 1.13-1.365.234 0 .478.033.722.133l.354-1.088a2.46 2.46 0 0 0-.82-.144zm-9.837.133h-1.885v-1.61H53.72v1.61h-1.075V6.42h1.075v2.42c0 1.232.477 1.965 1.841 1.965.5 0 1.076-.156 1.442-.411l-.333-.988c-.344.2-.72.3-1.02.3-.577 0-.765-.356-.765-.888V6.419h1.885V5.364zM39.538 10.67V7.34c0-1.254-.799-2.098-2.085-2.11-.677-.01-1.375.2-1.863.944-.366-.588-.943-.943-1.753-.943-.565 0-1.12.166-1.552.788v-.655h-1.153v5.306h1.164V7.73c0-.922.51-1.41 1.297-1.41.766 0 1.154.5 1.154 1.399v2.952h1.164V7.73c0-.922.533-1.41 1.298-1.41.787 0 1.164.5 1.164 1.399v2.952h1.165z"/>
    </g>
</svg>
