<svg
  xmlns="http://www.w3.org/2000/svg"
  xmlns:xlink="http://www.w3.org/1999/xlink"
  width="328"
  height="80"
  viewBox="0 0 328 80"
>
  <defs>
    <path id="a" d="M326.26 79.82V.662H.047V79.82z" />
  </defs>
  <g fill="none" fill-rule="evenodd">
    <path
            fill="#009CDE"
            d="M315 19.627l-7.363 46.84a1.495 1.495 0 0 0 1.477 1.729h7.405c1.227 0 2.27-.893 2.462-2.104l7.26-46a1.495 1.495 0 0 0-1.478-1.728h-8.286c-.736 0-1.363.536-1.477 1.263M292.903 51.678c-.83 4.908-4.726 8.203-9.695 8.203-2.493 0-4.486-.801-5.77-2.318-1.27-1.505-1.748-3.648-1.345-6.034.773-4.865 4.732-8.266 9.627-8.266 2.439 0 4.42.81 5.727 2.34 1.316 1.543 1.833 3.7 1.456 6.075zm11.971-16.72h-8.59c-.736 0-1.362.535-1.477 1.263l-.378 2.402-.6-.871c-1.86-2.7-6.006-3.603-10.146-3.603-9.49 0-17.598 7.192-19.176 17.28-.82 5.031.345 9.84 3.198 13.197 2.622 3.083 6.362 4.367 10.819 4.367 7.65 0 11.892-4.914 11.892-4.914l-.383 2.387a1.495 1.495 0 0 0 1.478 1.73h7.735c1.226 0 2.27-.892 2.462-2.104l4.644-29.406a1.494 1.494 0 0 0-1.478-1.728zM253.326 35.164c-.98 6.44-5.899 6.44-10.656 6.44h-2.706l1.898-12.024a1.495 1.495 0 0 1 1.477-1.261h1.241c3.237 0 6.296 0 7.873 1.844.944 1.104 1.23 2.74.873 5zm-2.07-16.8h-17.94c-1.227 0-2.271.892-2.462 2.104l-7.254 46a1.495 1.495 0 0 0 1.477 1.728h9.204c.859 0 1.59-.625 1.723-1.473l2.058-13.041a2.492 2.492 0 0 1 2.461-2.104h5.677c11.817 0 18.636-5.72 20.419-17.053.802-4.957.032-8.852-2.29-11.579-2.55-2.997-7.072-4.582-13.074-4.582z"
    />
    <path
            fill="#003087"
            d="M222.675 34.958h-8.635c-.825 0-1.598.41-2.061 1.093l-11.91 17.542-5.048-16.857a2.492 2.492 0 0 0-2.388-1.778h-8.487a1.496 1.496 0 0 0-1.416 1.978l9.507 27.906-8.942 12.618c-.702.99.007 2.36 1.22 2.36h8.626c.818 0 1.583-.4 2.049-1.073l28.714-41.441c.687-.992-.022-2.348-1.23-2.348M164.952 51.678c-.83 4.908-4.727 8.203-9.696 8.203-2.492 0-4.487-.801-5.769-2.318-1.27-1.505-1.748-3.648-1.346-6.034.774-4.865 4.733-8.266 9.627-8.266 2.44 0 4.42.81 5.728 2.34 1.315 1.543 1.832 3.7 1.456 6.075zm11.971-16.72h-8.59c-.736 0-1.362.535-1.477 1.263l-.378 2.402-.6-.871c-1.86-2.7-6.007-3.603-10.147-3.603-9.49 0-17.597 7.192-19.175 17.28-.822 5.031.344 9.84 3.197 13.197 2.622 3.083 6.363 4.367 10.82 4.367 7.65 0 11.892-4.914 11.892-4.914l-.384 2.387a1.496 1.496 0 0 0 1.477 1.73h7.737c1.226 0 2.27-.892 2.461-2.104l4.644-29.406a1.494 1.494 0 0 0-1.477-1.728zM125.374 35.164c-.98 6.44-5.899 6.44-10.655 6.44h-2.707l1.898-12.024a1.496 1.496 0 0 1 1.477-1.261h1.241c3.238 0 6.297 0 7.873 1.844.944 1.104 1.23 2.74.873 5zm-2.07-16.8h-17.94c-1.227 0-2.27.892-2.462 2.104l-7.255 46a1.496 1.496 0 0 0 1.478 1.728h8.565a2.493 2.493 0 0 0 2.463-2.104l1.957-12.41a2.492 2.492 0 0 1 2.462-2.104h5.677c11.816 0 18.636-5.72 20.418-17.053.803-4.957.033-8.852-2.289-11.579-2.551-2.997-7.073-4.582-13.074-4.582z"
    />
    <mask id="b" fill="#fff">
      <use xlink:href="#a" />
    </mask>
    <path
            fill="#009CDE"
            d="M60.455 20.773c.966-6.158-.007-10.348-3.337-14.143C53.45 2.452 46.826.662 38.35.662H13.748a3.52 3.52 0 0 0-3.477 2.971L.027 68.596a2.111 2.111 0 0 0 2.085 2.44h15.189l-1.048 6.649a1.848 1.848 0 0 0 1.824 2.135H30.88a3.08 3.08 0 0 0 3.042-2.599l.126-.65 2.412-15.294.155-.845a3.079 3.079 0 0 1 3.041-2.6h1.915c12.403 0 22.115-5.038 24.952-19.61 1.186-6.09.573-11.173-2.562-14.746-.95-1.08-2.129-1.974-3.505-2.703"
            mask="url(#b)"
    />
    <path
            fill="#012169"
            d="M60.455 20.773c.966-6.158-.007-10.348-3.337-14.143C53.45 2.452 46.826.662 38.35.662H13.748a3.52 3.52 0 0 0-3.477 2.971L.027 68.596a2.111 2.111 0 0 0 2.085 2.44h15.189l3.815-24.192-.118.759a3.508 3.508 0 0 1 3.464-2.972h7.22c14.177 0 25.278-5.76 28.521-22.418.096-.492.178-.97.252-1.44"
            mask="url(#b)"
    />
    <path
            fill="#003087"
            d="M25.214 20.855a3.081 3.081 0 0 1 3.042-2.6h19.286c2.284 0 4.415.15 6.362.463.557.09 1.098.193 1.624.31a23.186 23.186 0 0 1 2.261.62c.956.316 1.847.69 2.666 1.125.966-6.158-.007-10.348-3.337-14.143C53.45 2.452 46.826.662 38.35.662H13.748a3.52 3.52 0 0 0-3.477 2.971L.027 68.596a2.111 2.111 0 0 0 2.085 2.44h15.189l7.913-50.181"
            mask="url(#b)"
    />
  </g>
</svg>

