<svg xmlns="http://www.w3.org/2000/svg" width="46" height="14" viewBox="0 0 46 14">
    <path fill="#16216A" fill-rule="evenodd" d="M33.574.676l-.502 2.916-.334-.156a6.89 6.89 0 0 0-2.772-.515c-1.45 0-2.122.599-2.122 1.157-.008.63.786 1.046 2.081 1.668 2.138.962 3.124 2.127 3.11 3.656C33.006 12.198 30.48 14 26.583 14c-1.662-.016-3.263-.341-4.127-.717l.52-3.013.477.213c1.218.502 2.005.706 3.487.706 1.066 0 2.208-.41 2.22-1.313.005-.589-.481-1.01-1.923-1.668-1.406-.644-3.267-1.725-3.247-3.657.023-2.617 2.602-4.442 6.263-4.442 1.436 0 2.588.294 3.321.567zm9.477-.567L46 14h-3.38s-.335-1.596-.444-2.082l-4.663-.007c-.144.377-.767 2.089-.767 2.089H32.92l5.41-12.738C38.712.358 39.364.109 40.237.109h2.813zM4.148 1.85C2.945 1.178 1.56.642 0 .278L.045 0h6.082c.819.03 1.481.281 1.709 1.128l1.32 6.148a9.551 9.551 0 0 0-.247-.56c.15.32.274.638.37.953l.388 1.928 3.63-9.488h3.927l-5.838 13.885L7.463 14 4.148 1.848zm34.412 7.22c.302-.801 1.45-3.886 1.45-3.886-.02.038.3-.805.483-1.327l.246 1.199.845 4.014H38.56zM16.57 14L18.832.11h3.624L20.187 14H16.57z"/>
</svg>
