<svg width="16" height="16" viewBox="0 0 16 16" fill="none" xmlns="http://www.w3.org/2000/svg">
<path fill-rule="evenodd" clip-rule="evenodd" d="M7.70018 2.78962C7.77974 2.71006 7.88765 2.66536 8.00016 2.66536C8.11268 2.66536 8.22059 2.71006 8.30015 2.78962C8.37971 2.86918 8.42441 2.97709 8.42441 3.08961V3.1387L8.42441 3.14136C8.42563 3.44689 8.51616 3.7454 8.68486 4.00014C8.85291 4.2539 9.09122 4.45318 9.37064 4.57369C9.65617 4.69892 9.97259 4.73612 10.2794 4.68049C10.5874 4.62464 10.8717 4.47783 11.0955 4.25894L11.1336 4.22075C11.173 4.18131 11.2198 4.15001 11.2713 4.12866C11.3228 4.10731 11.378 4.09632 11.4338 4.09632C11.4896 4.09632 11.5448 4.10731 11.5963 4.12866C11.6478 4.15001 11.6945 4.1813 11.734 4.22075L11.7345 4.22127C11.7739 4.26067 11.8052 4.30746 11.8266 4.35897C11.8479 4.41047 11.8589 4.46567 11.8589 4.52143C11.8589 4.57718 11.8479 4.63238 11.8266 4.68388C11.8052 4.73539 11.7737 4.78244 11.7342 4.82184L11.7015 4.85454L11.6963 4.85979C11.4774 5.08357 11.3306 5.36779 11.2747 5.6758C11.227 5.93919 11.2476 6.20965 11.3337 6.46157C11.3421 6.51765 11.3577 6.57257 11.3801 6.62496C11.5005 6.90579 11.7003 7.1453 11.9551 7.314C12.2098 7.4827 12.5083 7.57323 12.8139 7.57445L12.8165 7.57446H12.9093C13.0218 7.57446 13.1297 7.61915 13.2092 7.69871C13.2888 7.77827 13.3335 7.88618 13.3335 7.9987C13.3335 8.11121 13.2888 8.21912 13.2092 8.29868C13.1297 8.37824 13.0218 8.42294 12.9093 8.42294L12.8602 8.42294L12.8575 8.42295C12.552 8.42416 12.2535 8.5147 11.9987 8.6834C11.745 8.85145 11.5457 9.08975 11.4252 9.36918C11.2999 9.6547 11.2627 9.97113 11.3184 10.278C11.3742 10.586 11.521 10.8702 11.7399 11.094L11.7781 11.1322C11.8176 11.1716 11.8488 11.2184 11.8702 11.2699C11.8915 11.3214 11.9025 11.3766 11.9025 11.4323C11.9025 11.4881 11.8915 11.5433 11.8702 11.5948C11.8488 11.6463 11.8176 11.6931 11.7781 11.7325L11.7776 11.733C11.7382 11.7725 11.6914 11.8037 11.6399 11.8251C11.5884 11.8464 11.5332 11.8574 11.4774 11.8574C11.4217 11.8574 11.3665 11.8464 11.315 11.8251C11.2635 11.8037 11.2164 11.7722 11.177 11.7327L11.1443 11.7L11.1391 11.6948C10.9153 11.476 10.6311 11.3291 10.3231 11.2733C10.0162 11.2176 9.6998 11.2548 9.41428 11.3801C9.13485 11.5006 8.89655 11.6999 8.7285 11.9536C8.5598 12.2084 8.46927 12.5069 8.46805 12.8124L8.46804 12.8151V12.9078C8.46804 13.0203 8.42335 13.1282 8.34378 13.2078C8.26422 13.2873 8.15631 13.332 8.0438 13.332C7.93128 13.332 7.82338 13.2873 7.74381 13.2078C7.66425 13.1282 7.61956 13.0203 7.61956 12.9078V12.8587L7.61937 12.8431C7.61202 12.5288 7.51029 12.224 7.32741 11.9683C7.14862 11.7184 6.90035 11.5266 6.61364 11.4168C6.33233 11.2971 6.022 11.2623 5.7209 11.3169C5.41289 11.3728 5.12864 11.5196 4.90487 11.7385L4.86668 11.7766C4.82728 11.8161 4.78049 11.8474 4.72899 11.8687C4.67748 11.8901 4.62228 11.9011 4.56653 11.9011C4.51078 11.9011 4.45557 11.8901 4.40407 11.8687C4.35256 11.8474 4.30577 11.8161 4.26638 11.7766L4.26585 11.7761C4.22641 11.7367 4.19511 11.6899 4.17376 11.6384C4.15241 11.5869 4.14143 11.5317 4.14143 11.476C4.14143 11.4202 4.15241 11.365 4.17376 11.3135C4.19511 11.262 4.22667 11.215 4.26611 11.1756L4.29887 11.1429L4.30401 11.1376C4.5229 10.9138 4.66974 10.6296 4.72559 10.3216C4.78122 10.0148 4.74402 9.69834 4.61879 9.41281C4.49828 9.13339 4.299 8.89508 4.04524 8.72704C3.7905 8.55833 3.49199 8.4678 3.18646 8.46658H3.09107C2.97856 8.46658 2.87065 8.42188 2.79109 8.34232C2.71153 8.26276 2.66683 8.15485 2.66683 8.04233C2.66683 7.92982 2.71153 7.82191 2.79109 7.74235C2.87065 7.66279 2.97856 7.61809 3.09107 7.61809H3.14016L3.15575 7.61791C3.47003 7.61056 3.77483 7.50883 4.03052 7.32595C4.2805 7.14716 4.47224 6.89888 4.58208 6.61218C4.70175 6.33087 4.73655 6.02053 4.68195 5.71944C4.62611 5.41143 4.4793 5.12718 4.2604 4.9034L4.22221 4.86521C4.18277 4.82581 4.15148 4.77902 4.13013 4.72752C4.10878 4.67602 4.09779 4.62081 4.09779 4.56506C4.09779 4.50931 4.10878 4.4541 4.13013 4.4026C4.15148 4.3511 4.18277 4.30431 4.22221 4.26491L4.22274 4.26439C4.26214 4.22494 4.30893 4.19365 4.36043 4.1723C4.41193 4.15095 4.46714 4.13996 4.52289 4.13996C4.57864 4.13996 4.63385 4.15095 4.68535 4.1723C4.73685 4.19365 4.7839 4.2252 4.8233 4.26465L4.856 4.2974L4.86126 4.30255C5.08503 4.52144 5.36925 4.66828 5.67727 4.72413C5.94066 4.77188 6.21112 4.75123 6.46303 4.66521C6.51912 4.65677 6.57404 4.64118 6.62642 4.61873C6.90725 4.49837 7.14676 4.29852 7.31546 4.04378C7.48416 3.78904 7.5747 3.49053 7.57592 3.18499V3.08961C7.57592 2.97709 7.62062 2.86918 7.70018 2.78962ZM12.6464 9.90424L12.0365 9.63505L12.6493 9.89768C12.6672 9.85586 12.697 9.82019 12.7349 9.79506C12.7726 9.77011 12.8167 9.75664 12.8619 9.75627H12.9093C13.3754 9.75627 13.8224 9.5711 14.152 9.24149C14.4817 8.91188 14.6668 8.46484 14.6668 7.9987C14.6668 7.53256 14.4817 7.08551 14.152 6.7559C13.8224 6.4263 13.3754 6.24112 12.9093 6.24112H12.8183C12.7731 6.24077 12.729 6.2273 12.6913 6.20234C12.6715 6.18925 12.654 6.1733 12.6392 6.15512C12.6301 6.11906 12.6179 6.08373 12.6028 6.04952C12.584 6.00687 12.5784 5.95956 12.5867 5.91368C12.5948 5.86862 12.6161 5.82697 12.6477 5.79392L12.677 5.76465C12.8403 5.60147 12.9699 5.40772 13.0583 5.19447C13.1467 4.98111 13.1922 4.7524 13.1922 4.52143C13.1922 4.29045 13.1467 4.06174 13.0583 3.84838C12.9698 3.63501 12.8402 3.44117 12.6768 3.27794C12.5136 3.11477 12.32 2.98532 12.1068 2.89697C11.8935 2.80852 11.6648 2.76299 11.4338 2.76299C11.2028 2.76299 10.9741 2.80852 10.7608 2.89697C10.5475 2.98537 10.3535 3.11517 10.1903 3.27846L10.1613 3.30749C10.1282 3.33913 10.0866 3.36038 10.0415 3.36855C9.99567 3.37687 9.94837 3.37122 9.90572 3.35239L9.89915 3.34957C9.85732 3.33165 9.82165 3.30188 9.79652 3.26394C9.77157 3.22627 9.7581 3.18216 9.75774 3.13699V3.08961C9.75774 2.62347 9.57257 2.17642 9.24296 1.84681C8.91335 1.5172 8.4663 1.33203 8.00016 1.33203C7.53402 1.33203 7.08698 1.5172 6.75737 1.84681C6.42776 2.17642 6.24259 2.62347 6.24259 3.08961V3.18054C6.24224 3.22575 6.22877 3.26988 6.2038 3.30758C6.19072 3.32734 6.17477 3.34488 6.15659 3.35968C6.12053 3.36881 6.0852 3.38096 6.05099 3.39606C6.00833 3.41489 5.96102 3.4205 5.91514 3.41218C5.87008 3.40401 5.82844 3.38277 5.79539 3.35112L5.76638 3.3221C5.60314 3.15869 5.4093 3.02905 5.19594 2.9406C4.98257 2.85215 4.75386 2.80663 4.52289 2.80663C4.29192 2.80663 4.06321 2.85215 3.84984 2.9406C3.63659 3.029 3.44284 3.15855 3.27967 3.32184C3.11638 3.48502 2.98683 3.67876 2.89843 3.89201C2.80998 4.10538 2.76446 4.33409 2.76446 4.56506C2.76446 4.79603 2.80998 5.02474 2.89843 5.23811C2.98688 5.45147 3.11652 5.64532 3.27993 5.80855L3.30895 5.83756C3.3406 5.87061 3.36184 5.91225 3.37001 5.95732C3.37833 6.00319 3.37271 6.0505 3.35389 6.09316C3.34822 6.10601 3.34296 6.11903 3.33811 6.13221C3.32195 6.17616 3.29294 6.21422 3.25486 6.24146C3.2182 6.26767 3.17477 6.28269 3.12983 6.28476H3.09107C2.62493 6.28476 2.17789 6.46993 1.84828 6.79954C1.51867 7.12915 1.3335 7.5762 1.3335 8.04233C1.3335 8.50847 1.51867 8.95552 1.84828 9.28513C2.17789 9.61474 2.62493 9.79991 3.09107 9.79991H3.18209C3.22726 9.80027 3.27137 9.81374 3.30904 9.8387C3.34698 9.86382 3.37671 9.89951 3.39464 9.94133L3.39753 9.94788C3.41635 9.99053 3.42197 10.0378 3.41365 10.0837C3.40548 10.1288 3.38424 10.1704 3.35259 10.2035L3.32331 10.2327C3.16001 10.3959 3.03047 10.5897 2.94207 10.8029C2.85362 11.0163 2.80809 11.245 2.80809 11.476C2.80809 11.7069 2.85362 11.9357 2.94207 12.149C3.03042 12.3622 3.15987 12.5558 3.32304 12.7189C3.48627 12.8823 3.68012 13.012 3.89348 13.1004C4.10685 13.1889 4.33555 13.2344 4.56653 13.2344C4.7975 13.2344 5.02621 13.1889 5.23957 13.1004C5.45283 13.012 5.64683 12.8822 5.81001 12.7189L5.83903 12.6899C5.87207 12.6583 5.91372 12.637 5.95878 12.6288C6.00466 12.6205 6.05197 12.6261 6.09462 12.645C6.10747 12.6506 6.1205 12.6559 6.13368 12.6608C6.17762 12.6769 6.21568 12.7059 6.24292 12.744C6.26914 12.7807 6.28416 12.8241 6.28622 12.869V12.9078C6.28622 13.3739 6.4714 13.821 6.80101 14.1506C7.13061 14.4802 7.57766 14.6654 8.0438 14.6654C8.50994 14.6654 8.95698 14.4802 9.28659 14.1506C9.6162 13.821 9.80138 13.3739 9.80138 12.9078V12.8168C9.80174 12.7716 9.81521 12.7275 9.84016 12.6898C9.86529 12.6519 9.90097 12.6221 9.9428 12.6042L9.94934 12.6013C9.99199 12.5825 10.0393 12.5769 10.0852 12.5852C10.1302 12.5934 10.1719 12.6146 10.2049 12.6463L10.234 12.6753C10.3972 12.8387 10.591 12.9683 10.8044 13.0568C11.0178 13.1452 11.2465 13.1908 11.4774 13.1908C11.7084 13.1908 11.9371 13.1452 12.1505 13.0568C12.3638 12.9683 12.5577 12.8387 12.7209 12.6753L12.2495 12.2044L12.7204 12.6758C12.8838 12.5126 13.0134 12.3187 13.1019 12.1054C13.1903 11.892 13.2359 11.6633 13.2359 11.4323C13.2359 11.2014 13.1903 10.9727 13.1019 10.7593C13.0134 10.5459 12.8838 10.3521 12.7204 10.1888L12.6914 10.1598C12.6597 10.1268 12.6385 10.0851 12.6303 10.0401C12.622 9.9942 12.6276 9.94689 12.6464 9.90424ZM7.3335 7.9987C7.3335 7.63051 7.63197 7.33203 8.00016 7.33203C8.36835 7.33203 8.66683 7.63051 8.66683 7.9987C8.66683 8.36689 8.36835 8.66536 8.00016 8.66536C7.63197 8.66536 7.3335 8.36689 7.3335 7.9987ZM8.00016 5.9987C6.89559 5.9987 6.00016 6.89413 6.00016 7.9987C6.00016 9.10327 6.89559 9.9987 8.00016 9.9987C9.10473 9.9987 10.0002 9.10327 10.0002 7.9987C10.0002 6.89413 9.10473 5.9987 8.00016 5.9987Z" fill="black"/>
</svg>
