<?xml version="1.0" encoding="utf-8"?>
<!-- Generator: Adobe Illustrator 21.1.0, SVG Export Plug-In . SVG Version: 6.00 Build 0)  -->
<svg version="1.1" id="Layer_1" xmlns="http://www.w3.org/2000/svg" xmlns:xlink="http://www.w3.org/1999/xlink" x="0px" y="0px"
	 viewBox="0 0 20 18" style="enable-background:new 0 0 20 18;" xml:space="preserve">
<title>Likes</title>
<path d="M10.1,18c-0.6,0-1.1-0.2-1.5-0.6l-6.8-6.8C0.7,9.5,0,7.9,0,6.3C0,4.6,0.7,3,1.9,1.9l0.2-0.2C3.2,0.6,4.7,0,6.3,0
	C7.6,0,8.9,0.4,10,1.1l0.1,0.1l0.1-0.1c0.9-0.7,2.2-1,3.6-1c1.6,0,3.1,0.7,4.3,1.8C19.3,3.1,20,4.7,20,6.4c0,1.6-0.7,3.2-1.9,4.4
	l-6.7,6.7C11.2,17.8,10.7,18,10.1,18z M6.4,0.9C5,0.9,3.7,1.4,2.7,2.3L2.5,2.5c-2.1,2.1-2.1,5.4,0,7.6l6.8,6.8
	c0.2,0.2,0.5,0.3,0.8,0.3s0.6-0.1,0.8-0.3l6.8-6.7c1-1,1.6-2.4,1.6-3.8c0-1.4-0.6-2.8-1.6-3.8c-1-1-2.3-1.5-3.7-1.6c0,0,0,0,0,0
	c-1.4,0-2.5,0.3-3.4,1.1l-0.3,0.2L9.9,2.1C8.9,1.3,7.7,0.9,6.4,0.9z"/>
</svg>
