<?xml version="1.0" standalone="no"?>
<!DOCTYPE svg PUBLIC "-//W3C//DTD SVG 20010904//EN"
 "http://www.w3.org/TR/2001/REC-SVG-20010904/DTD/svg10.dtd">
<svg version="1.0" xmlns="http://www.w3.org/2000/svg"
 width="260.000000pt" height="260.000000pt" viewBox="0 0 260.000000 260.000000"
 preserveAspectRatio="xMidYMid meet">
<metadata>
Created by potrace 1.11, written by Peter Selinger 2001-2013
</metadata>
<g transform="translate(0.000000,260.000000) scale(0.100000,-0.100000)"
fill="#000000" stroke="none">
<path d="M1150 2593 c-298 -46 -534 -157 -737 -347 -275 -256 -417 -596 -408
-976 2 -80 6 -158 10 -175 21 -99 28 -128 51 -200 59 -184 168 -360 313 -505
109 -108 116 -114 219 -181 141 -92 276 -147 457 -184 92 -19 135 -23 265 -20
158 3 244 16 370 56 469 149 814 551 894 1040 14 82 15 319 2 400 -10 62 -57
234 -67 244 -5 5 -9 15 -9 23 0 24 -84 184 -140 267 -74 109 -234 268 -347
343 -162 107 -338 176 -528 208 -38 7 -312 12 -345 7z"/>
</g>
</svg>
