<svg width="24" height="24" viewBox="0 0 24 24" fill="none" xmlns="http://www.w3.org/2000/svg">
<path fill-rule="evenodd" clip-rule="evenodd" d="M12.8379 2.42366C12.6594 2.16857 12.3508 2 12 2C11.6492 2 11.3406 2.16857 11.1621 2.42365L7.29289 6.29289C6.90237 6.68342 6.90237 7.31658 7.29289 7.70711C7.68342 8.09763 8.31658 8.09763 8.70711 7.70711L11 5.41421V15.0667C11 15.5821 11.4477 16 12 16C12.5523 16 13 15.5821 13 15.0667V5.41421L15.2929 7.70711C15.6834 8.09763 16.3166 8.09763 16.7071 7.70711C17.0976 7.31658 17.0976 6.68342 16.7071 6.29289L12.8379 2.42366ZM5 12C5.55228 12 6 12.4477 6 13V20H18V13C18 12.4477 18.4477 12 19 12C19.5523 12 20 12.4477 20 13V20C20 20.5304 19.7893 21.0391 19.4142 21.4142C19.0391 21.7893 18.5304 22 18 22H6C5.46957 22 4.96086 21.7893 4.58579 21.4142C4.21071 21.0391 4 20.5304 4 20V13C4 12.4477 4.44772 12 5 12Z" fill="#545454"/>
</svg>
