<?xml version="1.0" standalone="no"?>
<!DOCTYPE svg PUBLIC "-//W3C//DTD SVG 20010904//EN"
 "http://www.w3.org/TR/2001/REC-SVG-20010904/DTD/svg10.dtd">
<svg version="1.0" xmlns="http://www.w3.org/2000/svg"
 width="700.000000pt" height="700.000000pt" viewBox="0 0 700.000000 700.000000"
 preserveAspectRatio="xMidYMid meet">
<metadata>
Created by potrace 1.11, written by Peter Selinger 2001-2013
</metadata>
<g transform="translate(0.000000,700.000000) scale(0.100000,-0.100000)"
fill="#000000" stroke="none">
<path d="M2217 6708 c-771 -1297 -2207 -3719 -2209 -3727 -3 -9 435 -304 2591
-1748 399 -267 977 -654 1283 -860 l556 -373 585 972 c1905 3169 1975 3287
1964 3296 -7 6 -1029 614 -2272 1352 -1243 738 -2274 1351 -2292 1361 l-32 20
-174 -293z m1101 -2238 c144 -40 271 -125 333 -220 l32 -50 56 59 c93 98 226
172 391 217 91 25 310 26 400 1 229 -61 376 -211 442 -452 22 -78 22 -96 26
-722 l3 -643 -266 0 -265 0 0 533 c0 342 -4 554 -11 592 -27 148 -112 231
-255 250 -141 18 -318 -65 -404 -190 l-30 -44 0 -570 0 -571 -264 0 -265 0 -3
563 c-4 500 -6 568 -21 614 -25 76 -73 133 -141 168 -52 26 -68 29 -145 29
-64 -1 -101 -7 -143 -23 -85 -33 -174 -96 -219 -156 l-39 -52 0 -571 0 -572
-265 0 -265 0 0 895 0 895 265 0 265 0 0 -105 0 -104 63 62 c102 100 221 159
374 187 79 15 268 4 351 -20z"/>
</g>
</svg>
