<svg width="32" height="24" viewBox="0 0 32 24" fill="none" xmlns="http://www.w3.org/2000/svg">
<path d="M1.33301 4H30.6663V19H1.33301V4Z" fill="#569C8D"/>
<path d="M10.6509 14.082C9.95817 14.082 9.40788 13.853 9 13.395C8.5944 12.937 8.3916 12.3161 8.3916 11.5322C8.3916 10.7529 8.59554 10.1343 9.00342 9.67627C9.4113 9.21598 9.96045 8.98584 10.6509 8.98584C11.2114 8.98584 11.6842 9.14421 12.0693 9.46094C12.4544 9.77539 12.6789 10.189 12.7427 10.7017H11.9839C11.9155 10.3849 11.7594 10.132 11.5156 9.94287C11.2741 9.75146 10.9858 9.65576 10.6509 9.65576C10.202 9.65576 9.8431 9.82666 9.57422 10.1685C9.30762 10.508 9.17432 10.9626 9.17432 11.5322C9.17432 12.1087 9.30762 12.5667 9.57422 12.9062C9.84082 13.2435 10.2008 13.4121 10.6543 13.4121C10.9961 13.4121 11.2832 13.3289 11.5156 13.1626C11.7503 12.9963 11.9064 12.7638 11.9839 12.4653H12.7461C12.6527 12.9757 12.4214 13.3734 12.0522 13.6582C11.6854 13.9408 11.2183 14.082 10.6509 14.082ZM14.6055 13.4771C14.8652 13.4771 15.0828 13.3984 15.2583 13.2412C15.436 13.0817 15.5249 12.8857 15.5249 12.6533V12.3696L14.6396 12.4243C14.4186 12.4403 14.2477 12.495 14.127 12.5884C14.0085 12.6795 13.9492 12.8026 13.9492 12.9575C13.9492 13.1147 14.0085 13.2412 14.127 13.3369C14.2477 13.4303 14.4072 13.4771 14.6055 13.4771ZM14.4004 14.0615C14.0472 14.0615 13.759 13.9613 13.5356 13.7607C13.3146 13.5602 13.2041 13.2993 13.2041 12.978C13.2041 12.6636 13.3203 12.4141 13.5527 12.2295C13.7852 12.0426 14.1144 11.9378 14.5405 11.915L15.5249 11.8569V11.5801C15.5249 11.3796 15.4611 11.2235 15.3335 11.1118C15.2059 10.9979 15.0293 10.9409 14.8037 10.9409C14.5941 10.9409 14.4232 10.9876 14.291 11.0811C14.1611 11.1745 14.0791 11.3032 14.0449 11.4673H13.3477C13.3682 11.1346 13.5117 10.8634 13.7783 10.6538C14.0449 10.4442 14.3958 10.3394 14.8311 10.3394C15.2663 10.3394 15.6126 10.4465 15.8701 10.6606C16.1299 10.8748 16.2598 11.1619 16.2598 11.522V14H15.5522V13.4087H15.5352C15.4326 13.6069 15.2765 13.7653 15.0669 13.8838C14.8595 14.0023 14.6374 14.0615 14.4004 14.0615ZM16.9126 11.4229C16.9126 11.1016 17.0425 10.8407 17.3022 10.6401C17.562 10.4396 17.9015 10.3394 18.3208 10.3394C18.7196 10.3394 19.0465 10.4408 19.3018 10.6436C19.5592 10.8441 19.6937 11.105 19.7051 11.4263H19.0112C18.993 11.2622 18.9212 11.1335 18.7959 11.04C18.6706 10.9466 18.5054 10.8999 18.3003 10.8999C18.0998 10.8999 17.938 10.9443 17.8149 11.0332C17.6942 11.1221 17.6338 11.2371 17.6338 11.3784C17.6338 11.5972 17.8172 11.7521 18.1841 11.8433L18.7891 11.9834C19.1514 12.07 19.4077 12.1885 19.5581 12.3389C19.7108 12.487 19.7871 12.6943 19.7871 12.9609C19.7871 13.2891 19.6481 13.5557 19.3701 13.7607C19.0944 13.9658 18.7355 14.0684 18.2935 14.0684C17.8719 14.0684 17.5278 13.9681 17.2612 13.7676C16.9969 13.5671 16.8499 13.3005 16.8203 12.9678H17.5518C17.5814 13.141 17.6623 13.2743 17.7944 13.3677C17.9266 13.4588 18.1043 13.5044 18.3276 13.5044C18.5487 13.5044 18.723 13.4622 18.8506 13.3779C18.9805 13.2913 19.0454 13.1751 19.0454 13.0293C19.0454 12.9131 19.0067 12.8208 18.9292 12.7524C18.8517 12.6841 18.7196 12.626 18.5327 12.5781L17.8901 12.4209C17.2384 12.2637 16.9126 11.931 16.9126 11.4229ZM20.3887 14V9.06787H21.1201V11.0059H21.1372C21.2375 10.7939 21.3844 10.631 21.5781 10.5171C21.7718 10.4009 22.0042 10.3428 22.2754 10.3428C22.6673 10.3428 22.9749 10.4635 23.1982 10.7051C23.4238 10.9466 23.5366 11.2725 23.5366 11.6826V14H22.7949V11.8262C22.7949 11.5573 22.7277 11.3488 22.5933 11.2007C22.4611 11.0526 22.2663 10.9785 22.0088 10.9785C21.7376 10.9785 21.5223 11.0651 21.3628 11.2383C21.2056 11.4092 21.127 11.637 21.127 11.9219V14H20.3887Z" fill="white"/>
</svg>
