<svg width="24" height="24" viewBox="0 0 24 24" fill="none" xmlns="http://www.w3.org/2000/svg">
<path fill-rule="evenodd" clip-rule="evenodd" d="M21 5H3C2.44772 5 2 5.44772 2 6V17C2 17.5523 2.44772 18 3 18H21C21.5523 18 22 17.5523 22 17V6C22 5.44771 21.5523 5 21 5ZM3 4C1.89543 4 1 4.89543 1 6V17C1 18.1046 1.89543 19 3 19H21C22.1046 19 23 18.1046 23 17V6C23 4.89543 22.1046 4 21 4H3Z" fill="#1A1919"/>
<path d="M6.53613 14.082C5.84342 14.082 5.29313 13.853 4.88525 13.395C4.47965 12.937 4.27686 12.3161 4.27686 11.5322C4.27686 10.7529 4.48079 10.1343 4.88867 9.67627C5.29655 9.21598 5.8457 8.98584 6.53613 8.98584C7.09668 8.98584 7.5695 9.14421 7.95459 9.46094C8.33968 9.77539 8.56413 10.189 8.62793 10.7017H7.86914C7.80078 10.3849 7.64469 10.132 7.40088 9.94287C7.15934 9.75146 6.87109 9.65576 6.53613 9.65576C6.08724 9.65576 5.72835 9.82666 5.45947 10.1685C5.19287 10.508 5.05957 10.9626 5.05957 11.5322C5.05957 12.1087 5.19287 12.5667 5.45947 12.9062C5.72607 13.2435 6.0861 13.4121 6.53955 13.4121C6.88135 13.4121 7.16846 13.3289 7.40088 13.1626C7.63558 12.9963 7.79167 12.7638 7.86914 12.4653H8.63135C8.53792 12.9757 8.30664 13.3734 7.9375 13.6582C7.57064 13.9408 7.10352 14.082 6.53613 14.082ZM10.4907 13.4771C10.7505 13.4771 10.9681 13.3984 11.1436 13.2412C11.3213 13.0817 11.4102 12.8857 11.4102 12.6533V12.3696L10.5249 12.4243C10.3039 12.4403 10.133 12.495 10.0122 12.5884C9.89372 12.6795 9.83447 12.8026 9.83447 12.9575C9.83447 13.1147 9.89372 13.2412 10.0122 13.3369C10.133 13.4303 10.2925 13.4771 10.4907 13.4771ZM10.2856 14.0615C9.93245 14.0615 9.64421 13.9613 9.4209 13.7607C9.19987 13.5602 9.08936 13.2993 9.08936 12.978C9.08936 12.6636 9.20557 12.4141 9.43799 12.2295C9.67041 12.0426 9.99967 11.9378 10.4258 11.915L11.4102 11.8569V11.5801C11.4102 11.3796 11.3464 11.2235 11.2188 11.1118C11.0911 10.9979 10.9146 10.9409 10.689 10.9409C10.4793 10.9409 10.3084 10.9876 10.1763 11.0811C10.0464 11.1745 9.96436 11.3032 9.93018 11.4673H9.23291C9.25342 11.1346 9.39697 10.8634 9.66357 10.6538C9.93018 10.4442 10.2811 10.3394 10.7163 10.3394C11.1515 10.3394 11.4979 10.4465 11.7554 10.6606C12.0151 10.8748 12.145 11.1619 12.145 11.522V14H11.4375V13.4087H11.4204C11.3179 13.6069 11.1618 13.7653 10.9521 13.8838C10.7448 14.0023 10.5226 14.0615 10.2856 14.0615ZM12.7979 11.4229C12.7979 11.1016 12.9277 10.8407 13.1875 10.6401C13.4473 10.4396 13.7868 10.3394 14.2061 10.3394C14.6048 10.3394 14.9318 10.4408 15.187 10.6436C15.4445 10.8441 15.5789 11.105 15.5903 11.4263H14.8965C14.8783 11.2622 14.8065 11.1335 14.6812 11.04C14.5558 10.9466 14.3906 10.8999 14.1855 10.8999C13.985 10.8999 13.8232 10.9443 13.7002 11.0332C13.5794 11.1221 13.519 11.2371 13.519 11.3784C13.519 11.5972 13.7025 11.7521 14.0693 11.8433L14.6743 11.9834C15.0366 12.07 15.293 12.1885 15.4434 12.3389C15.596 12.487 15.6724 12.6943 15.6724 12.9609C15.6724 13.2891 15.5334 13.5557 15.2554 13.7607C14.9797 13.9658 14.6208 14.0684 14.1787 14.0684C13.7572 14.0684 13.4131 13.9681 13.1465 13.7676C12.8822 13.5671 12.7352 13.3005 12.7056 12.9678H13.437C13.4666 13.141 13.5475 13.2743 13.6797 13.3677C13.8118 13.4588 13.9896 13.5044 14.2129 13.5044C14.4339 13.5044 14.6082 13.4622 14.7358 13.3779C14.8657 13.2913 14.9307 13.1751 14.9307 13.0293C14.9307 12.9131 14.8919 12.8208 14.8145 12.7524C14.737 12.6841 14.6048 12.626 14.418 12.5781L13.7754 12.4209C13.1237 12.2637 12.7979 11.931 12.7979 11.4229ZM16.2739 14V9.06787H17.0054V11.0059H17.0225C17.1227 10.7939 17.2697 10.631 17.4634 10.5171C17.6571 10.4009 17.8895 10.3428 18.1606 10.3428C18.5526 10.3428 18.8602 10.4635 19.0835 10.7051C19.3091 10.9466 19.4219 11.2725 19.4219 11.6826V14H18.6802V11.8262C18.6802 11.5573 18.613 11.3488 18.4785 11.2007C18.3464 11.0526 18.1515 10.9785 17.894 10.9785C17.6229 10.9785 17.4076 11.0651 17.248 11.2383C17.0908 11.4092 17.0122 11.637 17.0122 11.9219V14H16.2739Z" fill="black"/>
</svg>
