<svg width="94" height="16" viewBox="0 0 94 16" fill="none" xmlns="http://www.w3.org/2000/svg">
<path fill-rule="evenodd" clip-rule="evenodd" d="M9.75317 14.2552H16.9576V1.70898H9.75317V14.2552Z" fill="#FF5F00"/>
<path fill-rule="evenodd" clip-rule="evenodd" d="M10.2104 7.98297C10.2104 5.43765 11.4402 3.17071 13.3552 1.70988C11.9548 0.641345 10.1875 0.00390625 8.26683 0.00390625C3.71983 0.00390625 0.0339355 3.57609 0.0339355 7.98297C0.0339355 12.3896 3.71983 15.962 8.26683 15.962C10.1875 15.962 11.9548 15.3246 13.3552 14.2561C11.4402 12.795 10.2104 10.5283 10.2104 7.98297" fill="#EB001B"/>
<path fill-rule="evenodd" clip-rule="evenodd" d="M26.4195 12.9273V12.6175H26.336L26.2402 12.8305L26.1442 12.6175H26.0607V12.9273H26.1197V12.6937L26.2096 12.895H26.2706L26.3607 12.6931V12.9273H26.4195ZM25.8912 12.9273V12.6705H25.998V12.6179H25.7259V12.6705H25.8327V12.9273H25.8912ZM26.6766 7.98297C26.6766 12.3896 22.9907 15.962 18.4437 15.962C16.523 15.962 14.756 15.3246 13.3553 14.2561C15.2703 12.795 16.5001 10.5283 16.5001 7.98297C16.5001 5.43765 15.2703 3.17071 13.3553 1.70988C14.756 0.641345 16.523 0.00390625 18.4437 0.00390625C22.9907 0.00390625 26.6766 3.57609 26.6766 7.98297V7.98297Z" fill="#F79E1B"/>
<path fill-rule="evenodd" clip-rule="evenodd" d="M43.1206 8.01698C43.1206 7.08454 43.7507 6.31877 44.7818 6.31877C45.7668 6.31877 46.4312 7.05129 46.4312 8.01698C46.4312 8.98289 45.7668 9.71563 44.7818 9.71563C43.7507 9.71563 43.1206 8.94964 43.1206 8.01698ZM47.554 8.01698V5.36394H46.3626V6.00781C45.9845 5.5304 45.4119 5.23074 44.6326 5.23074C43.0978 5.23074 41.895 6.39635 41.895 8.01698C41.895 9.63784 43.0978 10.8037 44.6326 10.8037C45.4119 10.8037 45.9845 10.5038 46.3626 10.0264V10.6702H47.554V8.01698ZM87.7853 8.01698C87.7853 7.08454 88.4154 6.31877 89.4462 6.31877C90.4314 6.31877 91.0958 7.05129 91.0958 8.01698C91.0958 8.98289 90.4314 9.71563 89.4462 9.71563C88.4154 9.71563 87.7853 8.94964 87.7853 8.01698ZM93.5513 10.4185V10.5018H93.63C93.648 10.5018 93.6626 10.4982 93.6733 10.4914C93.684 10.4845 93.6894 10.4739 93.6894 10.4597C93.6894 10.4459 93.684 10.4355 93.6733 10.4287C93.6626 10.4218 93.648 10.4185 93.63 10.4185H93.5513ZM93.6313 10.3597C93.6727 10.3597 93.7047 10.3686 93.7271 10.3865C93.7496 10.4045 93.7608 10.4289 93.7608 10.4597C93.7608 10.4854 93.7518 10.5069 93.7338 10.5235C93.7159 10.5404 93.6905 10.5508 93.6576 10.5545L93.7633 10.6725H93.6807L93.5828 10.5554H93.5513V10.6725H93.4822V10.3597H93.6313ZM93.6108 10.78C93.6483 10.78 93.6833 10.7731 93.7157 10.7593C93.748 10.7454 93.7763 10.7268 93.8008 10.703C93.8253 10.6795 93.8443 10.6516 93.8582 10.6197C93.8722 10.5878 93.879 10.5537 93.879 10.5173C93.879 10.4812 93.8722 10.447 93.8582 10.4151C93.8443 10.3832 93.8253 10.3553 93.8008 10.3316C93.7763 10.3081 93.748 10.2895 93.7157 10.2759C93.6833 10.2624 93.6483 10.2558 93.6108 10.2558C93.5728 10.2558 93.5371 10.2624 93.5039 10.2759C93.4708 10.2895 93.442 10.3081 93.4175 10.3316C93.393 10.3553 93.3738 10.3832 93.3599 10.4151C93.3461 10.447 93.339 10.4812 93.339 10.5173C93.339 10.5537 93.3461 10.5878 93.3599 10.6197C93.3738 10.6516 93.393 10.6795 93.4175 10.703C93.442 10.7268 93.4708 10.7454 93.5039 10.7593C93.5371 10.7731 93.5728 10.78 93.6108 10.78ZM93.6107 10.1806C93.6597 10.1806 93.7054 10.1895 93.7484 10.207C93.7912 10.2247 93.8287 10.2487 93.8607 10.2793C93.8927 10.3099 93.9181 10.3455 93.9366 10.3865C93.9549 10.4275 93.9643 10.4712 93.9643 10.5173C93.9643 10.5636 93.9549 10.6071 93.9366 10.6479C93.9181 10.6884 93.8927 10.7241 93.8607 10.7547C93.8287 10.7853 93.7912 10.8094 93.7484 10.8274C93.7054 10.8453 93.6597 10.8542 93.6107 10.8542C93.5609 10.8542 93.5142 10.8453 93.4708 10.8274C93.4273 10.8094 93.3896 10.7853 93.3578 10.7547C93.326 10.7241 93.3008 10.6884 93.2825 10.6479C93.264 10.6071 93.2549 10.5636 93.2549 10.5173C93.2549 10.4712 93.264 10.4275 93.2825 10.3865C93.3008 10.3455 93.326 10.3099 93.3578 10.2793C93.3896 10.2487 93.4273 10.2247 93.4708 10.207C93.5142 10.1895 93.5609 10.1806 93.6107 10.1806ZM92.2186 8.01698V3.23242H91.027V6.00781C90.6489 5.53039 90.0763 5.23073 89.2973 5.23073C87.7624 5.23073 86.5594 6.39634 86.5594 8.01698C86.5594 9.63784 87.7624 10.8037 89.2973 10.8037C90.0763 10.8037 90.6489 10.5038 91.027 10.0264V10.6702H92.2186V8.01698ZM62.3314 6.26314C63.0989 6.26314 63.5913 6.72925 63.7174 7.55087H60.8765C61.0026 6.78488 61.4835 6.26314 62.3314 6.26314ZM62.3542 5.23074C60.7505 5.23074 59.628 6.36288 59.628 8.01698C59.628 9.70456 60.7963 10.8037 62.4345 10.8037C63.2593 10.8037 64.0154 10.6038 64.6798 10.0598L64.0954 9.20498C63.6373 9.56005 63.053 9.75997 62.5031 9.75997C61.7356 9.75997 61.0369 9.41598 60.8651 8.46115H64.9318C64.9433 8.31686 64.9547 8.17258 64.9547 8.01698C64.9433 6.36288 63.8894 5.23074 62.3542 5.23074ZM76.7308 8.01698C76.7308 7.08454 77.3609 6.31877 78.3919 6.31877C79.3769 6.31877 80.0414 7.05129 80.0414 8.01698C80.0414 8.98289 79.3769 9.71563 78.3919 9.71563C77.3609 9.71563 76.7308 8.94964 76.7308 8.01698ZM81.1641 8.01698V5.36394H79.9727V6.00781C79.5947 5.5304 79.022 5.23074 78.2428 5.23074C76.7079 5.23074 75.5051 6.39635 75.5051 8.01698C75.5051 9.63784 76.7079 10.8037 78.2428 10.8037C79.022 10.8037 79.5947 10.5038 79.9727 10.0264V10.6702H81.1641V8.01698ZM70.0064 8.01698C70.0064 9.62676 71.1635 10.8037 72.9278 10.8037C73.7525 10.8037 74.3021 10.6259 74.8979 10.1707L74.3252 9.23822C73.8785 9.54919 73.4088 9.71564 72.8932 9.71564C71.9425 9.70456 71.2438 9.0383 71.2438 8.01698C71.2438 6.99589 71.9425 6.32963 72.8932 6.31877C73.4088 6.31877 73.8785 6.485 74.3252 6.79597L74.8979 5.86352C74.3021 5.40827 73.7525 5.23074 72.9278 5.23074C71.1635 5.23074 70.0064 6.40743 70.0064 8.01698ZM85.3566 5.23074C84.6693 5.23074 84.2227 5.54148 83.9134 6.00781V5.36394H82.7335V10.6702H83.9246V7.69516C83.9246 6.81813 84.3144 6.32963 85.0931 6.32963C85.3337 6.32963 85.5858 6.36288 85.8378 6.46284L86.2044 5.37503C85.9409 5.27507 85.5972 5.23074 85.3566 5.23074ZM53.4421 5.78573C52.8692 5.41935 52.0787 5.23074 51.2083 5.23074C49.8221 5.23074 48.9285 5.8746 48.9285 6.92917C48.9285 7.79512 49.5929 8.32795 50.8185 8.4944L51.38 8.57219C52.033 8.66085 52.3422 8.82752 52.3422 9.12718C52.3422 9.5381 51.907 9.77105 51.0937 9.77105C50.2687 9.77105 49.6732 9.51572 49.2722 9.21606L48.711 10.1153C49.3637 10.5816 50.1887 10.8037 51.082 10.8037C52.6629 10.8037 53.5793 10.0818 53.5793 9.07177C53.5793 8.13911 52.8577 7.65083 51.6664 7.48416L51.1051 7.40659C50.5896 7.33987 50.1772 7.24013 50.1772 6.88484C50.1772 6.49631 50.5665 6.26314 51.2197 6.26314C51.9184 6.26314 52.5942 6.51847 52.9266 6.71839L53.4421 5.78573ZM68.8036 5.23074C68.1164 5.23074 67.6695 5.54148 67.3603 6.00781V5.36394H66.1803V10.6702H67.3717V7.69516C67.3717 6.81813 67.7612 6.32963 68.5402 6.32963C68.7808 6.32963 69.0328 6.36288 69.2849 6.46284L69.6512 5.37503C69.3878 5.27507 69.0442 5.23074 68.8036 5.23074ZM58.6427 5.36394H56.6953V3.75417H55.4925V5.36394H54.3812V6.41851H55.4925V8.83861C55.4925 10.0709 55.9851 10.8037 57.394 10.8037C57.9095 10.8037 58.5053 10.6481 58.8831 10.3928L58.5396 9.40468C58.1844 9.6046 57.7949 9.70456 57.4857 9.70456C56.8899 9.70456 56.6953 9.34927 56.6953 8.81644V6.41851H58.6427V5.36394ZM40.8411 10.6702V7.33987C40.8411 6.08538 40.0163 5.24181 38.6875 5.23073C37.9888 5.21965 37.267 5.43043 36.7629 6.17426C36.3849 5.58602 35.7891 5.23073 34.9529 5.23073C34.3688 5.23073 33.7961 5.39718 33.3492 6.01889V5.36394H32.1578V10.6702H33.3606V7.7284C33.3606 6.80704 33.8876 6.31877 34.7009 6.31877C35.4913 6.31877 35.8924 6.81812 35.8924 7.71732V10.6702H37.0952V7.7284C37.0952 6.80704 37.6451 6.31877 38.4355 6.31877C39.2488 6.31877 39.6383 6.81812 39.6383 7.71732V10.6702H40.8411V10.6702Z" fill="black"/>
</svg>
