<svg width="66" height="16" viewBox="0 0 66 16" fill="none" xmlns="http://www.w3.org/2000/svg">
<path fill-rule="evenodd" clip-rule="evenodd" d="M63.7219 3.8335L62.2323 13.3013C62.2034 13.4848 62.3453 13.6505 62.5311 13.6505H64.0294C64.2775 13.6505 64.4888 13.4701 64.5274 13.2253L65.9962 3.92753C66.0253 3.74403 65.8833 3.57812 65.6974 3.57812H64.0208C63.8718 3.57812 63.7451 3.6865 63.7219 3.8335Z" fill="#009CDE"/>
<path fill-rule="evenodd" clip-rule="evenodd" d="M59.2512 10.3124C59.0833 11.3046 58.2951 11.9706 57.2896 11.9706C56.7854 11.9706 56.382 11.8087 56.1225 11.5019C55.8654 11.1979 55.7686 10.7647 55.8502 10.2823C56.0066 9.29911 56.8076 8.61155 57.7979 8.61155C58.2914 8.61155 58.6922 8.77517 58.9566 9.08465C59.2228 9.3964 59.3274 9.83251 59.2512 10.3124ZM61.6733 6.93299H59.9354C59.7865 6.93299 59.6597 7.04104 59.6365 7.18819L59.56 7.67368L59.4387 7.49767C59.0622 6.95189 58.2234 6.76953 57.3857 6.76953C55.4657 6.76953 53.8253 8.2232 53.5061 10.2621C53.34 11.2792 53.5759 12.2511 54.1531 12.9295C54.6835 13.5529 55.4403 13.8123 56.3421 13.8123C57.8898 13.8123 58.7482 12.8191 58.7482 12.8191L58.6707 13.3016C58.6415 13.4851 58.7834 13.6512 58.9695 13.6512H60.5346C60.7827 13.6512 60.9939 13.4709 61.0327 13.226L61.9722 7.28223C62.0012 7.09873 61.8593 6.93299 61.6733 6.93299V6.93299Z" fill="#009CDE"/>
<path fill-rule="evenodd" clip-rule="evenodd" d="M51.2439 6.97388C51.0455 8.27551 50.0505 8.27551 49.088 8.27551H48.5404L48.9246 5.84533C48.9477 5.6985 49.0745 5.59029 49.2234 5.59029H49.4745C50.1294 5.59029 50.7483 5.59029 51.0674 5.96316C51.2583 6.18626 51.316 6.51692 51.2439 6.97388V6.97388ZM50.825 3.57812H47.1953C46.9472 3.57812 46.7359 3.75853 46.6973 4.00347L45.2296 13.3013C45.2006 13.4846 45.3425 13.6505 45.5285 13.6505H47.3907C47.5644 13.6505 47.7124 13.5242 47.7393 13.3528L48.1556 10.7169C48.1943 10.472 48.4055 10.2916 48.6536 10.2916H49.8022C52.193 10.2916 53.5727 9.13565 53.9334 6.84481C54.0957 5.84289 53.9399 5.05559 53.4703 4.50443C52.9541 3.89852 52.0393 3.57812 50.825 3.57812V3.57812Z" fill="#009CDE"/>
<path fill-rule="evenodd" clip-rule="evenodd" d="M45.0424 6.93164H43.2955C43.1284 6.93164 42.9722 7.01443 42.8784 7.15246L40.4687 10.6981L39.4473 7.29098C39.3835 7.07782 39.1871 6.93164 38.9643 6.93164H37.2471C37.0397 6.93164 36.8937 7.13535 36.9606 7.3314L38.8842 12.972L37.075 15.5225C36.9329 15.7226 37.0763 15.9995 37.3218 15.9995H39.0671C39.2325 15.9995 39.3873 15.9185 39.4816 15.7826L45.2912 7.4062C45.4301 7.20575 45.2866 6.93164 45.0424 6.93164" fill="#003087"/>
<path fill-rule="evenodd" clip-rule="evenodd" d="M33.3638 10.3124C33.1959 11.3046 32.4075 11.9706 31.402 11.9706C30.8979 11.9706 30.4944 11.8087 30.235 11.5019C29.9779 11.1979 29.8812 10.7647 29.9626 10.2823C30.1192 9.29911 30.9201 8.61155 31.9103 8.61155C32.4039 8.61155 32.8046 8.77517 33.0692 9.08465C33.3354 9.3964 33.4399 9.83251 33.3638 10.3124V10.3124ZM35.7859 6.93299H34.0479C33.899 6.93299 33.7722 7.04104 33.7491 7.18819L33.6726 7.67368L33.551 7.49767C33.1747 6.95189 32.3359 6.76953 31.4983 6.76953C29.5781 6.76953 27.9379 8.2232 27.6186 10.2621C27.4524 11.2792 27.6883 12.2511 28.2656 12.9295C28.7959 13.5529 29.5528 13.8123 30.4546 13.8123C32.0023 13.8123 32.8607 12.8191 32.8607 12.8191L32.783 13.3016C32.754 13.4851 32.8959 13.6512 33.0819 13.6512H34.6471C34.8952 13.6512 35.1065 13.4709 35.1451 13.226L36.0847 7.28223C36.1138 7.09873 35.9718 6.93299 35.7859 6.93299V6.93299Z" fill="#003087"/>
<path fill-rule="evenodd" clip-rule="evenodd" d="M25.3562 6.97388C25.1578 8.27551 24.1627 8.27551 23.2004 8.27551H22.6528L23.0368 5.84533C23.0602 5.6985 23.1869 5.59029 23.3357 5.59029H23.5867C24.2418 5.59029 24.8607 5.59029 25.1797 5.96316C25.3707 6.18626 25.4284 6.51692 25.3562 6.97388V6.97388ZM24.9374 3.57812H21.3077C21.0596 3.57812 20.8483 3.75853 20.8097 4.00347L19.3419 13.3013C19.313 13.4846 19.4549 13.6505 19.6407 13.6505H21.3738C21.6219 13.6505 21.8333 13.4701 21.872 13.2253L22.268 10.7169C22.3065 10.472 22.5179 10.2916 22.7661 10.2916H23.9146C26.3052 10.2916 27.6851 9.13565 28.0458 6.84481C28.2081 5.84289 28.0523 5.05559 27.5827 4.50443C27.0664 3.89852 26.1516 3.57812 24.9374 3.57812V3.57812Z" fill="#003087"/>
<mask id="mask0" mask-type="alpha" maskUnits="userSpaceOnUse" x="0" y="0" width="66" height="16">
<path fill-rule="evenodd" clip-rule="evenodd" d="M66 16V0H0V16H66Z" fill="white"/>
</mask>
<g mask="url(#mask0)">
<path fill-rule="evenodd" clip-rule="evenodd" d="M12.2218 4.0649C12.4172 2.82032 12.2205 1.97338 11.5466 1.20629C10.8047 0.361788 9.46447 0 7.74969 0H2.77189C2.42149 0 2.12313 0.254718 2.06849 0.600536L-0.00419855 13.7313C-0.0451433 13.9904 0.155339 14.2246 0.417809 14.2246H3.49078L3.27872 15.5683C3.243 15.795 3.41819 16 3.64788 16H6.238C6.54467 16 6.80568 15.7771 6.85347 15.4746L6.87892 15.3431L7.36683 12.2519L7.39831 12.0811C7.44611 11.7785 7.70711 11.5557 8.01363 11.5557H8.40105C10.9104 11.5557 12.8753 10.5372 13.4493 7.59168C13.6893 6.36095 13.5653 5.3336 12.9309 4.61133C12.7389 4.39296 12.5003 4.21222 12.2218 4.0649Z" fill="#009CDE"/>
<path fill-rule="evenodd" clip-rule="evenodd" d="M12.2218 4.0649C12.4172 2.82032 12.2205 1.97337 11.5466 1.20629C10.8047 0.361788 9.46447 0 7.74969 0H2.77189C2.42149 0 2.12313 0.254718 2.06849 0.600536L-0.00419855 13.7313C-0.0451433 13.9904 0.155339 14.2246 0.417809 14.2246H3.49078L4.2627 9.33462L4.23872 9.48798C4.29337 9.14216 4.58928 8.88728 4.93967 8.88728H6.40031C9.26872 8.88728 11.5146 7.72304 12.1709 4.35612C12.1903 4.25655 12.207 4.15991 12.2218 4.0649Z" fill="#012169"/>
<path fill-rule="evenodd" clip-rule="evenodd" d="M5.09187 4.08152C5.12482 3.87341 5.25842 3.70311 5.43835 3.6169C5.52024 3.57779 5.61159 3.55595 5.70735 3.55595H9.60917C10.0715 3.55595 10.5024 3.58627 10.8964 3.64966C11.0091 3.66775 11.1186 3.68861 11.2251 3.71224C11.3315 3.73571 11.4349 3.76211 11.5349 3.79144C11.585 3.80595 11.6341 3.82126 11.6825 3.8374C11.876 3.90144 12.0561 3.97723 12.2218 4.0649C12.4172 2.82032 12.2205 1.97337 11.5466 1.20629C10.8047 0.361788 9.46447 0 7.74969 0H2.77189C2.42149 0 2.12313 0.254718 2.06849 0.600536L-0.00419855 13.7313C-0.0451433 13.9904 0.155339 14.2246 0.417809 14.2246H3.49078L5.09187 4.08152Z" fill="#003087"/>
</g>
</svg>
