<svg width="52" height="16" viewBox="0 0 52 16" fill="none" xmlns="http://www.w3.org/2000/svg">
<path fill-rule="evenodd" clip-rule="evenodd" d="M6.92658 0H0.0510994L0 0.318264C1.7628 0.735382 3.32908 1.34751 4.68932 2.11244L8.43652 16L12.8715 15.9936L19.4707 0.124654H15.0316L10.9279 10.9675L10.4889 8.76474C10.3808 8.40454 10.2402 8.04002 10.0709 7.67575C10.1711 7.88677 10.2642 8.10015 10.3502 8.31566L8.85793 1.28938C8.60035 0.321324 7.85158 0.0346826 6.92658 0ZM37.9532 0.772272C37.1241 0.460266 35.8223 0.124654 34.1988 0.124654C30.061 0.124654 27.145 2.21017 27.1193 5.20091C27.0968 7.40958 29.2 8.64426 30.7898 9.38014C32.4194 10.1335 32.9688 10.6138 32.9627 11.2871C32.9504 12.3185 31.6589 12.7876 30.4536 12.7876C28.7788 12.7876 27.8891 12.5546 26.5126 11.9809L25.9734 11.7376L25.3851 15.181C26.3619 15.61 28.172 15.9815 30.0508 16C34.454 16 37.3116 13.9401 37.3444 10.7452C37.3598 8.99732 36.2457 7.66616 33.8288 6.56696C32.3641 5.85571 31.4662 5.38154 31.4755 4.66105C31.4755 4.02267 32.236 3.33811 33.8749 3.33811C35.2432 3.31656 36.2374 3.61625 37.0082 3.92722L37.3854 4.10478L37.9532 0.772272ZM48.666 0.124654H45.4861C44.4997 0.124654 43.7621 0.408748 43.3289 1.4423L37.2139 16H41.5394C41.5394 16 42.2437 14.0431 42.4059 13.6128C42.6271 13.6128 43.668 13.6144 44.7732 13.6161L44.7793 13.6161C46.0291 13.6181 47.3592 13.6202 47.6775 13.6202C47.8005 14.1756 48.1783 16 48.1783 16H52L48.666 0.124654ZM45.2291 5.92314C45.2291 5.92314 43.9314 9.44888 43.5898 10.3648H47.0075C46.8423 9.56866 46.0533 5.77685 46.0533 5.77685L45.7742 4.40727C45.6593 4.73876 45.4963 5.18414 45.3784 5.50654L45.3783 5.50662C45.2843 5.76359 45.2189 5.94242 45.2291 5.92314ZM21.2889 0.124654L18.7314 16H22.8206L25.3851 0.124654H21.2889Z" fill="#16216A"/>
</svg>
