<svg width="22" height="16" viewBox="0 0 22 16" fill="none" xmlns="http://www.w3.org/2000/svg">
<path d="M22 14.6285C22 15.386 21.4178 16 20.6996 16H1.30045C0.582227 16 0 15.386 0 14.6285V1.37145C0 0.614041 0.582227 0 1.30045 0H20.6996C21.4178 0 22 0.614041 22 1.37145V14.6285Z" fill="#5677E4"/>
<path d="M3.20312 6.38684H3.86046L3.53188 5.50684L3.20312 6.38684Z" fill="white"/>
<path d="M6.69995 9.34082V9.74945H7.80549V10.1895H6.69995V10.6611H7.92495L8.49261 10.0009L7.95485 9.34082H6.69995Z" fill="white"/>
<path d="M15.3346 5.50684L14.9761 6.38684H15.6634L15.3346 5.50684Z" fill="white"/>
<path d="M9.89797 10.9125V9.12109L9.12109 10.0011L9.89797 10.9125Z" fill="white"/>
<path d="M11.3624 9.6137C11.3325 9.43187 11.2129 9.34082 11.0336 9.34082H10.4062V9.88631H11.0636C11.2429 9.88636 11.3624 9.79548 11.3624 9.6137Z" fill="white"/>
<path d="M13.4537 9.83881C13.5135 9.80763 13.5435 9.7142 13.5435 9.62104C13.5734 9.49669 13.5135 9.43436 13.4537 9.40321C13.3941 9.37207 13.3044 9.37207 13.2149 9.37207H12.6172V9.86996H13.2148C13.3043 9.86996 13.3941 9.86996 13.4537 9.83881Z" fill="white"/>
<path fill-rule="evenodd" clip-rule="evenodd" d="M17.7545 5.06658V4.68945H17.7546H19.0991V7.76936H17.7845H17.7545H17.6949L17.4259 7.29804V7.45515V7.76936H15.6931L15.5138 7.26663H15.0956L14.9164 7.76936H14.0199C13.6613 7.76936 13.3926 7.67522 13.2133 7.5808V7.76936H11.0621V7.07797C11.0621 7.02367 11.0621 7.00063 11.0507 6.99085C11.0423 6.98365 11.0277 6.98365 11.0024 6.98365H10.9425V7.80082H10.9126H7.47662H6.78942V7.76932V7.42369L6.6401 7.80078H5.77372L5.62423 7.42369V7.76932V7.80082H3.89148L3.71221 7.298H3.32382L3.14446 7.76932L3.13364 7.80082H3.11456H1.59076H1.57812L1.59076 7.76932L2.27787 6.16652L2.87552 4.68945H4.16025H4.19015L4.33955 5.06658V4.68945H4.78776H5.86331L6.19189 5.47517L6.52069 4.68945H11.331C11.5701 4.68945 11.7493 4.75241 11.8987 4.87806V4.72091V4.68945H13.2432V4.87806C13.4821 4.75237 13.7511 4.68945 14.0797 4.68945H15.9919L16.1713 5.06658V4.68945H17.5754L17.7545 5.06658ZM7.32586 7.32952H7.62466V5.12956H6.81784L6.22032 6.63804L6.21073 6.67062L5.94003 6.02402L5.56307 5.16102H5.56204L5.54794 5.12952H4.93559H4.75637V7.23514L3.91981 5.12952H3.17293L2.28906 7.32952H2.81427L3.02344 6.8581H4.03939L4.24852 7.32952H5.2643V5.60093L5.98132 7.32952H6.23987H6.39967H6.42167L7.11673 5.67216V5.67302L7.14664 5.60093V7.14109V7.32952H7.32586ZM9.68879 5.60088H8.52352V6.00943H9.65888V6.44938H8.52352V6.88952H9.68879V7.36079H8.01562V5.12952H9.68879V5.60088ZM11.8215 6.41318L11.8204 6.41249L11.8188 6.41128C11.7294 6.31343 11.6297 6.29232 11.6297 6.29232C11.7765 6.23044 11.9806 6.04694 11.9875 5.71248C11.9841 5.46963 11.8957 5.31627 11.7493 5.2238C11.5999 5.12952 11.4205 5.12952 11.1518 5.12952H10.0163V7.32952H10.5241V6.5438H11.0621C11.203 6.5438 11.2878 6.5443 11.3326 6.5748C11.3637 6.58873 11.3923 6.6083 11.4205 6.63799C11.5103 6.76369 11.5103 6.9523 11.5103 7.07799V7.32952H11.9583V6.88952C11.9583 6.8704 11.9579 6.85273 11.9572 6.83541L11.9573 6.8327C11.9573 6.83094 11.957 6.82945 11.957 6.82773L11.9565 6.81883C11.9542 6.64671 11.9079 6.52934 11.8507 6.45042C11.8425 6.43835 11.8328 6.42574 11.8215 6.41318ZM12.8249 7.32952H12.3169V5.12952H12.8249V7.32952ZM18.6496 7.32947H18.6497V7.32956H18.6496V7.32947ZM18.6496 7.32947V5.16111H18.1414V6.701L17.2752 5.16111H16.5283V6.38669V6.44947V7.1593V7.26669L15.6916 5.16106H15.2435H14.9446L14.2575 6.88956H14.0483C13.899 6.88956 13.7796 6.8581 13.6897 6.76369C13.5703 6.63799 13.5404 6.48088 13.5404 6.2294C13.5404 6.00943 13.6003 5.82091 13.6897 5.72667C13.8095 5.63221 13.8989 5.60088 14.0782 5.60088H14.5564V5.12952H14.0782C13.7496 5.12952 13.4806 5.19221 13.3313 5.38091C13.1222 5.63225 13.0625 5.94674 13.0625 6.261C13.0625 6.66949 13.152 6.92093 13.3313 7.10949C13.5105 7.29806 13.8095 7.36084 14.0483 7.36084H14.616L14.7953 6.8581H15.8411L16.0203 7.32952H16.5283V7.33083H17.0331V7.04328L17.0362 7.04653V5.66371L17.9923 7.32947H18.6496Z" fill="white"/>
<path d="M11.3928 6.04102C11.4015 6.03131 11.4095 6.0203 11.4162 6.00768C11.4432 5.96307 11.4743 5.88271 11.4575 5.77304C11.4568 5.76297 11.4551 5.75366 11.453 5.74467C11.4525 5.74216 11.4526 5.73997 11.4519 5.73746L11.4516 5.73751C11.4367 5.68422 11.3988 5.65146 11.3609 5.63159C11.301 5.60059 11.2114 5.60059 11.1218 5.60059H10.5242V6.09847H11.1218C11.2114 6.09847 11.3011 6.09847 11.3609 6.06728C11.3699 6.06254 11.3779 6.0561 11.3856 6.0488L11.3857 6.04921C11.3857 6.04916 11.3888 6.04585 11.3928 6.04102Z" fill="white"/>
<path fill-rule="evenodd" clip-rule="evenodd" d="M20.2629 9.87491C20.3525 10.032 20.4121 10.2521 20.4121 10.4721C20.4121 10.4926 20.4114 10.5127 20.4103 10.533L20.412 10.5348C20.4111 10.5457 20.4096 10.5565 20.4084 10.5674C20.3826 10.9339 20.2092 11.2412 19.9341 11.4148C19.7549 11.5406 19.4857 11.572 19.217 11.572H17.9322V11.509V11.3833C17.7828 11.509 17.5141 11.572 17.245 11.572H13.1817V11.509V10.8491C13.1817 10.7548 13.1817 10.7548 13.0919 10.7548H13.0324V11.509V11.572H11.6878V11.509V10.7234C11.4787 10.8178 11.2097 10.8178 11.0007 10.8178H10.8512V11.2263V11.5406H10.8215H10.7916H10.7229H9.20792H9.17793L8.80345 11.086L8.37145 11.5406H5.74219V8.7089V8.46063V8.36621H8.10246H8.306H8.43109L8.81952 8.83767L9.23791 8.36621H11.0303C11.2097 8.36621 11.5684 8.39771 11.7177 8.55473V8.46067V8.36626H13.3312C13.4804 8.36626 13.8094 8.39776 13.9885 8.55478V8.46072V8.3663H16.4384V8.55482C16.5581 8.42922 16.8268 8.3663 17.0361 8.3663H18.4104V8.55482C18.4104 8.55482 18.6365 8.3663 18.8228 8.3663H20.2615V8.46072H20.2629V9.87491ZM10.4031 10.2835H11.0008C11.4488 10.2835 11.8671 10.1577 11.8671 9.52915C11.8671 9.44689 11.8579 9.37449 11.8423 9.30936C11.7118 8.98045 11.3677 8.90068 11.0604 8.90068H9.47692L8.8494 9.62344L8.83428 9.63993L8.72273 9.51193L8.19215 8.90063H6.25009V11.1005H8.16224L8.81954 10.3776L8.84747 10.4114L8.84944 10.4091L9.42101 11.1005H10.4031V10.7548V10.5662V10.3776V10.2835ZM13.9902 10.2521C14.0499 10.3461 14.0798 10.4721 14.0798 10.6607V11.1006H13.5719V10.8178C13.5719 10.6919 13.5719 10.4721 13.4822 10.3776C13.4226 10.2836 13.3029 10.2836 13.1238 10.2836H12.586V11.1006H12.0781V8.86926H13.2134C13.4523 8.86926 13.6614 8.86926 13.8111 8.96345C13.9603 9.05783 14.0798 9.21498 14.0798 9.46642C14.0798 9.81204 13.8707 10.0006 13.7213 10.0636C13.8707 10.1262 13.9603 10.1892 13.9902 10.2521ZM14.8867 9.34042H16.0521V8.86914H14.3789V11.1005H16.0521V10.6291H14.8867V10.1891H16.0221V9.749H14.8867V9.34042ZM17.3049 11.1005H16.3488V10.6292H17.3049C17.3944 10.6292 17.4543 10.6292 17.5142 10.5663C17.5441 10.5348 17.5738 10.472 17.5738 10.4091C17.5738 10.3461 17.5441 10.2836 17.5142 10.2521C17.4842 10.2206 17.4243 10.1892 17.3347 10.1892C17.2953 10.1866 17.2552 10.1844 17.2149 10.1822C16.7669 10.158 16.289 10.1321 16.289 9.49784C16.289 9.18353 16.4683 8.83777 17.0061 8.83777H17.992V9.37196H17.0659C16.9763 9.37196 16.9164 9.37196 16.8566 9.40342C16.797 9.43492 16.797 9.49784 16.797 9.56062C16.797 9.65494 16.8566 9.6864 16.9164 9.71759C16.9763 9.74909 17.036 9.74909 17.0957 9.74909H17.3646C17.6335 9.74909 17.8128 9.81196 17.9323 9.9377C18.0219 10.032 18.0817 10.1892 18.0817 10.4091C18.0817 10.8804 17.8128 11.1005 17.3049 11.1005ZM19.2469 11.1005C19.5458 11.1005 19.755 11.0063 19.8744 10.8804C19.9939 10.7548 20.0536 10.5977 20.0536 10.4091C20.0536 10.3684 20.0497 10.3316 20.0444 10.2963C19.9831 9.95985 19.7091 9.83094 19.6264 9.79944C19.536 9.76604 19.4373 9.74909 19.3067 9.74909H19.0676H19.0379C18.9781 9.74909 18.9183 9.74909 18.8586 9.71759C18.7689 9.6864 18.739 9.65494 18.739 9.56062C18.739 9.49784 18.7689 9.43492 18.7989 9.40342C18.8586 9.37196 18.9183 9.37196 19.008 9.37196H19.0379H19.2768H19.9343V8.83777H18.9482C18.8928 8.83777 18.8422 8.84224 18.7943 8.8492C18.3936 8.92934 18.2311 9.19917 18.2311 9.49788C18.2311 10.1321 18.7091 10.158 19.157 10.1822C19.1973 10.1844 19.2374 10.1866 19.2768 10.1892C19.3665 10.1892 19.4262 10.2206 19.4561 10.2521C19.4859 10.2836 19.5159 10.3461 19.5159 10.4091C19.5159 10.472 19.4859 10.5348 19.4561 10.5663C19.3964 10.6292 19.3365 10.6292 19.2468 10.6292H18.291V11.1005H19.2469Z" fill="white"/>
</svg>
