<svg width="21" height="8" viewBox="0 0 21 8" fill="none" xmlns="http://www.w3.org/2000/svg">
<path d="M3.62256 7.10547C5.08154 7.10547 6.07471 6.33643 6.31641 5.02686H5.33643C5.13867 5.7915 4.51025 6.24414 3.62695 6.24414C2.4624 6.24414 1.72412 5.30811 1.72412 3.82715C1.72412 2.35938 2.47119 1.41455 3.62256 1.41455C4.48389 1.41455 5.16064 1.94629 5.33643 2.75928H6.31201C6.14502 1.43652 5.05957 0.553223 3.62256 0.553223C1.85156 0.553223 0.717773 1.81885 0.717773 3.82715C0.717773 5.84863 1.84277 7.10547 3.62256 7.10547ZM8.70703 6.32764C8.19727 6.32764 7.86328 6.06396 7.86328 5.65967C7.86328 5.26416 8.18408 5.01367 8.75098 4.97412L9.88916 4.90381V5.26855C9.88916 5.87061 9.37061 6.32764 8.70703 6.32764ZM8.44336 7.0791C9.0498 7.0791 9.63428 6.75391 9.90234 6.23975H9.92432V7H10.834V3.81396C10.834 2.88672 10.1177 2.29346 8.99707 2.29346C7.85449 2.29346 7.14258 2.90869 7.08984 3.74365H7.98633C8.06982 3.33057 8.4126 3.06689 8.96191 3.06689C9.54199 3.06689 9.88916 3.37451 9.88916 3.88867V4.24463L8.62354 4.31934C7.5249 4.38086 6.90527 4.87744 6.90527 5.68604C6.90527 6.5166 7.53809 7.0791 8.44336 7.0791ZM11.6733 3.68652C11.6733 4.33252 12.0952 4.76758 12.9302 4.96973L13.7563 5.17188C14.2397 5.29492 14.4155 5.45752 14.4155 5.75195C14.4155 6.12549 14.064 6.36279 13.4927 6.36279C12.9126 6.36279 12.5698 6.1167 12.4951 5.67285H11.5547C11.6294 6.521 12.3545 7.08789 13.4487 7.08789C14.5825 7.08789 15.3691 6.50781 15.3691 5.66406C15.3691 4.98291 15.0176 4.63135 14.0859 4.40723L13.3081 4.22705C12.8291 4.1084 12.6006 3.91504 12.6006 3.62939C12.6006 3.26465 12.9434 3.01416 13.4575 3.01416C13.9893 3.01416 14.3276 3.27344 14.3716 3.69092H15.2637C15.2329 2.86914 14.5122 2.29346 13.4839 2.29346C12.4028 2.29346 11.6733 2.86035 11.6733 3.68652ZM16.1426 7H17.0918V4.32812C17.0918 3.59863 17.5225 3.11523 18.2256 3.11523C18.8936 3.11523 19.2363 3.52393 19.2363 4.20508V7H20.1899V4.02051C20.1899 2.97461 19.5835 2.29785 18.5684 2.29785C17.8652 2.29785 17.3599 2.60986 17.105 3.15039H17.083V0.658691H16.1426V7Z" fill="black"/>
</svg>
