<svg width="26" height="16" viewBox="0 0 26 16" fill="none" xmlns="http://www.w3.org/2000/svg">
<path fill-rule="evenodd" clip-rule="evenodd" d="M9.41016 14.2523H16.3846V1.70605H9.41016V14.2523Z" fill="#FF5F00"/>
<path fill-rule="evenodd" clip-rule="evenodd" d="M9.85169 7.97907C9.85169 5.43374 11.0422 3.1668 12.8961 1.70597C11.5404 0.637439 9.82955 0 7.97014 0C3.56826 0 0 3.57218 0 7.97907C0 12.3857 3.56826 15.9581 7.97014 15.9581C9.82955 15.9581 11.5404 15.3207 12.8961 14.2522C11.0422 12.7911 9.85169 10.5244 9.85169 7.97907Z" fill="#EB001B"/>
<path fill-rule="evenodd" clip-rule="evenodd" d="M25.5418 12.9234V12.6135H25.4609L25.3682 12.8265L25.2752 12.6135H25.1944V12.9234H25.2515V12.6898L25.3385 12.891H25.3976L25.4849 12.6891V12.9234H25.5418ZM25.0303 12.9234V12.6665H25.1337V12.614H24.8702V12.6665H24.9736V12.9234H25.0303ZM25.7906 7.97907C25.7906 12.3857 22.2224 15.9581 17.8205 15.9581C15.9611 15.9581 14.2505 15.3207 12.8945 14.2522C14.7484 12.7911 15.9389 10.5244 15.9389 7.97907C15.9389 5.43374 14.7484 3.1668 12.8945 1.70597C14.2505 0.637439 15.9611 0 17.8205 0C22.2224 0 25.7906 3.57218 25.7906 7.97907Z" fill="#F79E1B"/>
</svg>
