<svg width="46" height="12" viewBox="0 0 46 12" fill="none" xmlns="http://www.w3.org/2000/svg">
<path fill-rule="evenodd" clip-rule="evenodd" d="M44.4122 2.66062L43.3739 9.23092C43.3538 9.35826 43.4527 9.47328 43.5822 9.47328H44.6265C44.7994 9.47328 44.9467 9.34809 44.9736 9.17822L45.9973 2.72587C46.0175 2.59853 45.9186 2.4834 45.789 2.4834H44.6205C44.5167 2.4834 44.4283 2.55861 44.4122 2.66062Z" fill="#009CDE"/>
<path fill-rule="evenodd" clip-rule="evenodd" d="M41.2963 7.15592C41.1793 7.84443 40.6299 8.30665 39.9291 8.30665C39.5777 8.30665 39.2965 8.19423 39.1156 7.98139C38.9364 7.77036 38.869 7.46975 38.9259 7.13499C39.0349 6.4527 39.5931 5.97555 40.2834 5.97555C40.6273 5.97555 40.9066 6.0891 41.0909 6.30387C41.2765 6.52022 41.3493 6.82285 41.2963 7.15592ZM42.9844 4.8107H41.7731C41.6693 4.8107 41.581 4.88568 41.5648 4.9878L41.5115 5.32471L41.4269 5.20257C41.1645 4.82382 40.5799 4.69727 39.9961 4.69727C38.6579 4.69727 37.5146 5.70606 37.2921 7.12098C37.1764 7.8268 37.3408 8.50129 37.743 8.9721C38.1127 9.40468 38.6402 9.58473 39.2687 9.58473C40.3474 9.58473 40.9457 8.89542 40.9457 8.89542L40.8917 9.23029C40.8713 9.35764 40.9702 9.47288 41.0999 9.47288H42.1907C42.3636 9.47288 42.5109 9.3478 42.5379 9.17782L43.1927 5.05306C43.2129 4.92572 43.114 4.8107 42.9844 4.8107Z" fill="#009CDE"/>
<path fill-rule="evenodd" clip-rule="evenodd" d="M35.7154 4.83994C35.5772 5.74322 34.8836 5.74322 34.2128 5.74322H33.8312L34.0989 4.05677C34.115 3.95487 34.2034 3.87978 34.3072 3.87978H34.4822C34.9386 3.87978 35.37 3.87978 35.5924 4.13853C35.7254 4.29336 35.7657 4.52283 35.7154 4.83994ZM35.4235 2.4834H32.8936C32.7207 2.4834 32.5735 2.60859 32.5465 2.77857L31.5236 9.23092C31.5034 9.35815 31.6023 9.47328 31.7319 9.47328H33.0299C33.1509 9.47328 33.2541 9.38563 33.2728 9.26666L33.563 7.43748C33.5899 7.2675 33.7371 7.1423 33.9101 7.1423H34.7106C36.3769 7.1423 37.3385 6.34013 37.5899 4.75037C37.703 4.05506 37.5944 3.50871 37.2671 3.12622C36.9074 2.70574 36.2698 2.4834 35.4235 2.4834Z" fill="#009CDE"/>
<path fill-rule="evenodd" clip-rule="evenodd" d="M31.3932 4.81055H30.1757C30.0592 4.81055 29.9503 4.868 29.8849 4.96379L28.2054 7.42437L27.4936 5.05992C27.4492 4.91199 27.3123 4.81055 27.157 4.81055H25.9601C25.8156 4.81055 25.7138 4.95191 25.7605 5.08797L27.1011 9.00237L25.8402 10.7723C25.7411 10.9112 25.8411 11.1033 26.0122 11.1033H27.2286C27.3439 11.1033 27.4518 11.0471 27.5175 10.9528L31.5666 5.13988C31.6635 5.00077 31.5634 4.81055 31.3932 4.81055Z" fill="#003087"/>
<path fill-rule="evenodd" clip-rule="evenodd" d="M23.2536 7.15592C23.1366 7.84443 22.5872 8.30665 21.8863 8.30665C21.535 8.30665 21.2537 8.19423 21.073 7.98139C20.8938 7.77036 20.8264 7.46975 20.8831 7.13499C20.9922 6.4527 21.5505 5.97555 22.2406 5.97555C22.5847 5.97555 22.8639 6.0891 23.0483 6.30387C23.2338 6.52022 23.3067 6.82285 23.2536 7.15592ZM24.9418 4.8107H23.7305C23.6267 4.8107 23.5383 4.88568 23.5222 4.9878L23.4689 5.32471L23.3842 5.20257C23.1219 4.82382 22.5373 4.69727 21.9534 4.69727C20.6151 4.69727 19.4719 5.70606 19.2494 7.12098C19.1336 7.8268 19.298 8.50129 19.7003 8.9721C20.07 9.40468 20.5975 9.58473 21.226 9.58473C22.3047 9.58473 22.903 8.89542 22.903 8.89542L22.8489 9.23029C22.8286 9.35764 22.9276 9.47288 23.0572 9.47288H24.1481C24.321 9.47288 24.4682 9.3478 24.4952 9.17782L25.1501 5.05306C25.1703 4.92572 25.0714 4.8107 24.9418 4.8107Z" fill="#003087"/>
<path fill-rule="evenodd" clip-rule="evenodd" d="M17.6724 4.83994C17.5341 5.74322 16.8406 5.74322 16.1699 5.74322H15.7883L16.0559 4.05677C16.0722 3.95487 16.1605 3.87978 16.2642 3.87978H16.4392C16.8958 3.87978 17.3271 3.87978 17.5494 4.13853C17.6825 4.29336 17.7228 4.52283 17.6724 4.83994ZM17.3806 2.4834H14.8508C14.6778 2.4834 14.5306 2.60859 14.5037 2.77857L13.4806 9.23092C13.4605 9.35815 13.5594 9.47328 13.6889 9.47328H14.8968C15.0697 9.47328 15.2171 9.34809 15.244 9.17822L15.5201 7.43748C15.5469 7.2675 15.6943 7.1423 15.8672 7.1423H16.6677C18.3339 7.1423 19.2956 6.34013 19.547 4.75037C19.6601 4.05506 19.5516 3.50871 19.2242 3.12622C18.8644 2.70574 18.2268 2.4834 17.3806 2.4834Z" fill="#003087"/>
<mask id="mask0" mask-type="alpha" maskUnits="userSpaceOnUse" x="0" y="0" width="46" height="12">
<path fill-rule="evenodd" clip-rule="evenodd" d="M46 11.1034V0H0V11.1034H46Z" fill="white"/>
</mask>
<g mask="url(#mask0)">
<path fill-rule="evenodd" clip-rule="evenodd" d="M8.51827 2.8209C8.65447 1.9572 8.51736 1.36945 8.04769 0.837121C7.53061 0.251069 6.5965 0 5.40134 0H1.93197C1.68775 0 1.4798 0.176766 1.44172 0.416751L-0.00288187 9.52907C-0.0314191 9.70889 0.108311 9.8714 0.291245 9.8714H2.43302L2.28521 10.8039C2.26031 10.9612 2.38242 11.1034 2.5425 11.1034H4.34774C4.56148 11.1034 4.74339 10.9487 4.77671 10.7388L4.79444 10.6476L5.1345 8.5024L5.15645 8.38388C5.18976 8.17386 5.37167 8.01926 5.5853 8.01926H5.85532C7.60428 8.01926 8.97373 7.31243 9.37382 5.26837C9.54106 4.41428 9.45465 3.70134 9.0125 3.20011C8.87868 3.04856 8.71234 2.92314 8.51827 2.8209Z" fill="#009CDE"/>
<path fill-rule="evenodd" clip-rule="evenodd" d="M8.51827 2.8209C8.65447 1.9572 8.51736 1.36945 8.04769 0.837121C7.53061 0.251069 6.5965 0 5.40134 0H1.93197C1.68775 0 1.4798 0.176766 1.44172 0.416751L-0.00288187 9.52907C-0.0314191 9.70889 0.108311 9.8714 0.291245 9.8714H2.43302L2.97102 6.47791L2.9543 6.58433C2.99239 6.34434 3.19863 6.16746 3.44285 6.16746H4.46086C6.46006 6.16746 8.0254 5.35952 8.4828 3.023C8.49633 2.9539 8.50792 2.88684 8.51827 2.8209Z" fill="#012169"/>
<path fill-rule="evenodd" clip-rule="evenodd" d="M3.54892 2.83244C3.57189 2.68802 3.66501 2.56983 3.79041 2.51001C3.84748 2.48286 3.91115 2.46771 3.97789 2.46771H6.69734C7.01955 2.46771 7.31993 2.48874 7.5945 2.53274C7.67307 2.54529 7.74935 2.55977 7.8236 2.57617C7.89773 2.59245 7.96981 2.61077 8.0395 2.63113C8.07441 2.6412 8.10863 2.65183 8.1424 2.66302C8.27724 2.70747 8.40275 2.76006 8.51827 2.8209C8.65447 1.9572 8.51736 1.36945 8.04769 0.837121C7.53061 0.251069 6.5965 0 5.40134 0H1.93197C1.68775 0 1.4798 0.176766 1.44172 0.416751L-0.00288187 9.52907C-0.0314191 9.70889 0.108311 9.8714 0.291245 9.8714H2.43302L3.54892 2.83244Z" fill="#003087"/>
</g>
</svg>
