<svg width="36" height="11" viewBox="0 0 36 11" fill="none" xmlns="http://www.w3.org/2000/svg">
<path fill-rule="evenodd" clip-rule="evenodd" d="M4.79532 0H0.0353765L0 0.218806C1.22041 0.505577 2.30476 0.926421 3.24647 1.45231L5.84068 11L8.91106 10.9956L13.4797 0.0856875H10.4065L7.56546 7.54012L7.26155 6.02575C7.1869 5.77865 7.08983 5.52861 6.97296 5.27873C7.04203 5.42327 7.10624 5.56942 7.16555 5.71701L6.13241 0.886446C5.95408 0.22091 5.43571 0.0238443 4.79532 0ZM26.2753 0.530924C25.7013 0.31642 24.8001 0.0856875 23.6761 0.0856875C20.8115 0.0856875 18.7927 1.51948 18.7749 3.57561C18.7593 5.09407 20.2154 5.94292 21.316 6.44883C22.4442 6.96675 22.8246 7.29697 22.8203 7.75985C22.8118 8.46898 21.9177 8.79144 21.0832 8.79144C19.9238 8.79144 19.3078 8.63127 18.3548 8.23684L17.9816 8.06961L17.5743 10.4369C18.2505 10.7319 19.5037 10.9873 20.8044 11C23.8528 11 25.8311 9.58384 25.8538 7.38729C25.8645 6.18564 25.0931 5.27047 23.4199 4.51477C22.4059 4.02579 21.7843 3.6998 21.7907 3.20446C21.7907 2.76558 22.3172 2.29494 23.4519 2.29494C24.3992 2.28012 25.0875 2.48616 25.6211 2.69995L25.8822 2.82202L26.2753 0.530924ZM33.6918 0.0856875H31.4904C30.8075 0.0856875 30.2969 0.281002 29.9969 0.991569L25.7635 11H28.7581C28.7581 11 29.2457 9.65465 29.358 9.35876C29.5091 9.35876 30.2138 9.35986 30.9683 9.36103L30.9976 9.36108L30.9985 9.36108L31.0011 9.36108L31.0102 9.3611L31.0195 9.36111L31.0284 9.36112C31.8856 9.36246 32.7894 9.36386 33.0075 9.36386C33.0926 9.74575 33.3542 11 33.3542 11H36L33.6918 0.0856875ZM31.3125 4.07214C31.3125 4.07214 30.414 6.49608 30.1776 7.12575H32.5436C32.4292 6.57844 31.8831 3.97157 31.8831 3.97157L31.6898 3.02998C31.6103 3.25775 31.4976 3.56374 31.4159 3.78537L31.4158 3.78554L31.4158 3.78574L31.4157 3.78588L31.4155 3.78636C31.3506 3.96272 31.3054 4.08538 31.3125 4.07214ZM14.7385 0.0856875L12.9679 11H15.7989L17.5743 0.0856875H14.7385Z" fill="#16216A"/>
</svg>
