<svg width="24" height="24" viewBox="0 0 24 24" fill="none" xmlns="http://www.w3.org/2000/svg">
<path fill-rule="evenodd" clip-rule="evenodd" d="M3.70711 2.29289C3.31658 1.90237 2.68342 1.90237 2.29289 2.29289C1.90237 2.68342 1.90237 3.31658 2.29289 3.70711L6.77166 8.18587C6.53163 8.40138 6.30893 8.62044 6.10393 8.83674C5.45062 9.52604 4.95236 10.2122 4.61724 10.7255C4.44917 10.9829 4.32075 11.199 4.23314 11.353C4.1893 11.4301 4.15558 11.4919 4.13214 11.5357C4.12041 11.5576 4.11124 11.5751 4.10465 11.5877L4.0967 11.6031L4.09418 11.6081L4.09328 11.6098C4.09313 11.6101 4.09263 11.6111 4.85107 12L4.09263 11.6111C3.96912 11.8555 3.96912 12.1445 4.09263 12.3889L4.09328 12.3902L4.09418 12.3919L4.0967 12.3969L4.10465 12.4123C4.11124 12.4249 4.12041 12.4424 4.13214 12.4643C4.15558 12.5081 4.1893 12.5699 4.23314 12.647C4.32075 12.801 4.44917 13.0171 4.61724 13.2745C4.95236 13.7878 5.45062 14.474 6.10393 15.1633C7.39612 16.5266 9.39137 18 12.0001 18C13.3719 18 14.5742 17.5925 15.5937 17.0079L20.2929 21.7071C20.6834 22.0976 21.3166 22.0976 21.7071 21.7071C22.0976 21.3166 22.0976 20.6834 21.7071 20.2929L17.2284 15.8142C17.4685 15.5987 17.6912 15.3796 17.8962 15.1633C18.5495 14.474 19.0478 13.7878 19.3829 13.2745C19.551 13.0171 19.6794 12.801 19.767 12.647C19.8109 12.5699 19.8446 12.5081 19.868 12.4643C19.8797 12.4424 19.8889 12.4249 19.8955 12.4123L19.9034 12.3969L19.906 12.3919L19.9069 12.3902C19.907 12.3899 19.9075 12.3889 19.1491 12L19.9075 12.3889C20.031 12.1445 20.0307 11.8549 19.9072 11.6105L19.906 11.6081L19.9034 11.6031L19.8955 11.5877C19.8889 11.5751 19.8797 11.5576 19.868 11.5357C19.8446 11.4919 19.8109 11.4301 19.767 11.353C19.6794 11.199 19.551 10.9829 19.3829 10.7255C19.0478 10.2122 18.5495 9.52604 17.8962 8.83674C16.604 7.47336 14.6088 6 12.0001 6C10.6282 6 9.42592 6.40748 8.40637 6.99216L3.70711 2.29289ZM7.98196 9.39617C7.75309 9.5972 7.53737 9.80709 7.33519 10.0204C6.76992 10.6168 6.33394 11.2163 6.03945 11.6674C5.95862 11.7912 5.88887 11.9031 5.83043 12C5.88887 12.0969 5.95862 12.2088 6.03945 12.3326C6.33394 12.7837 6.76992 13.3832 7.33519 13.9796C8.48016 15.1876 10.0594 16.2857 12.0001 16.2857C12.8464 16.2857 13.6241 16.0769 14.3269 15.7411L13.2934 14.7076C12.9018 14.895 12.4631 15 12 15C10.3431 15 9 13.6569 9 12C9 11.5369 9.10495 11.0982 9.29237 10.7066L7.98196 9.39617ZM10.7066 9.29237L9.67315 8.25894C10.376 7.92316 11.1537 7.71429 12.0001 7.71429C13.9407 7.71429 15.52 8.81236 16.665 10.0204C17.2302 10.6168 17.6662 11.2163 17.9607 11.6674C18.0415 11.7912 18.1113 11.9031 18.1697 12C18.1113 12.0969 18.0415 12.2088 17.9607 12.3326C17.6662 12.7837 17.2302 13.3832 16.665 13.9796C16.4628 14.1929 16.247 14.4029 16.0181 14.6039L14.7076 13.2934C14.895 12.9018 15 12.4631 15 12C15 10.3431 13.6569 9 12 9C11.5369 9 11.0982 9.10495 10.7066 9.29237ZM11.8059 13.2201C11.2791 13.137 10.863 12.7209 10.7799 12.1941L11.8059 13.2201ZM12.1941 10.7799L13.2201 11.8059C13.137 11.2791 12.7209 10.863 12.1941 10.7799ZM19.9072 11.6105L19.1491 12C19.9075 11.6111 19.9074 11.6108 19.9072 11.6105ZM4.09263 12.3889L4.85107 12C4.47248 12.1941 4.28283 12.2913 4.18785 12.3399C4.09382 12.3881 4.09257 12.3887 4.09263 12.3889Z" fill="#8F8F8F"/>
</svg>
