<svg width="16" height="16" viewBox="0 0 16 16" fill="none" xmlns="http://www.w3.org/2000/svg">
<path fill-rule="evenodd" clip-rule="evenodd" d="M7.33325 12.0002C7.33325 12.3684 7.63173 12.6668 7.99992 12.6668C8.36811 12.6668 8.66659 12.3684 8.66659 12.0002V8.66683H11.9999C12.3681 8.66683 12.6666 8.36835 12.6666 8.00016C12.6666 7.63197 12.3681 7.3335 11.9999 7.3335H8.66659V4.00016C8.66659 3.63197 8.36811 3.3335 7.99992 3.3335C7.63173 3.3335 7.33325 3.63197 7.33325 4.00016L7.33325 7.3335H3.99992C3.63173 7.3335 3.33325 7.63197 3.33325 8.00016C3.33325 8.36835 3.63173 8.66683 3.99992 8.66683H7.33325L7.33325 12.0002Z" fill="black"/>
</svg>
